<svg width="320" height="100" viewBox="0 0 320 100" fill="none" xmlns="http://www.w3.org/2000/svg">
<path d="M90 90H10V60L40 80L90 40V90Z" fill="#A49251"/>
<path d="M90 20L40 60L10 40V10H90V20Z" fill="#D8D0B3"/>
<path d="M90 20L40 60L10 40V10H90V20Z" fill="#5498D9"/>
<path d="M129.689 59.9999V15.8197H140.929C144.535 15.8197 147.381 16.1804 149.464 16.9017C151.588 17.623 153.151 18.5447 154.153 19.6667C155.195 20.7887 155.876 21.9709 156.197 23.2131C156.517 24.4554 156.677 25.6175 156.677 26.6995C156.677 27.8616 156.497 29.0838 156.137 30.3661C155.816 31.6084 155.255 32.7705 154.453 33.8524C153.652 34.8943 152.55 35.7359 151.147 36.377C154.153 37.1384 156.277 38.4608 157.519 40.3442C158.801 42.1876 159.443 44.2513 159.443 46.5355C159.443 48.0983 159.262 49.6812 158.902 51.2841C158.541 52.887 157.779 54.3496 156.617 55.672C155.495 56.9544 153.792 57.9963 151.508 58.7977C149.224 59.5992 146.158 59.9999 142.311 59.9999H129.689ZM136.301 34.5738H142.011C144.095 34.5738 145.698 34.2331 146.82 33.5519C147.942 32.8306 148.723 31.9089 149.164 30.7869C149.645 29.6648 149.885 28.4827 149.885 27.2404C149.885 26.1986 149.645 25.2568 149.164 24.4153C148.723 23.5337 147.902 22.8324 146.699 22.3115C145.537 21.7906 143.874 21.5301 141.71 21.5301H136.301V34.5738ZM136.301 54.3496H143.213C145.257 54.3496 146.88 54.1092 148.082 53.6283C149.324 53.1475 150.266 52.5263 150.907 51.765C151.548 51.0036 151.969 50.1821 152.169 49.3005C152.37 48.3788 152.47 47.4772 152.47 46.5956C152.47 44.5118 151.769 42.8888 150.366 41.7267C148.963 40.5246 146.759 39.9235 143.754 39.9235H136.301V54.3496ZM187.515 60.601C184.509 60.601 181.664 60.08 178.979 59.0382C176.335 57.9963 173.99 56.4935 171.947 54.53C169.903 52.5263 168.28 50.122 167.078 47.3169C165.916 44.5118 165.335 41.346 165.335 37.8196C165.335 34.2532 165.916 31.0674 167.078 28.2623C168.28 25.4572 169.903 23.0729 171.947 21.1093C174.03 19.1458 176.395 17.6631 179.039 16.6612C181.724 15.6194 184.549 15.0984 187.515 15.0984C190.48 15.0984 193.285 15.6194 195.93 16.6612C198.615 17.6631 200.979 19.1458 203.023 21.1093C205.107 23.0729 206.73 25.4572 207.892 28.2623C209.094 31.0674 209.695 34.2532 209.695 37.8196C209.695 41.346 209.094 44.5118 207.892 47.3169C206.73 50.122 205.127 52.5263 203.083 54.53C201.039 56.4935 198.675 57.9963 195.99 59.0382C193.345 60.08 190.52 60.601 187.515 60.601ZM187.515 54.53C190.24 54.53 192.744 53.8888 195.029 52.6065C197.313 51.3242 199.136 49.4608 200.498 47.0163C201.861 44.5318 202.542 41.4863 202.542 37.8798C202.542 34.2331 201.861 31.1876 200.498 28.7432C199.136 26.2587 197.313 24.3953 195.029 23.153C192.784 21.8707 190.28 21.2295 187.515 21.2295C184.75 21.2295 182.225 21.8707 179.941 23.153C177.697 24.3953 175.894 26.2587 174.531 28.7432C173.169 31.1876 172.488 34.2331 172.488 37.8798C172.488 41.4863 173.189 44.5318 174.591 47.0163C175.994 49.4608 177.837 51.3242 180.121 52.6065C182.406 53.8888 184.87 54.53 187.515 54.53ZM216.976 59.9999V15.8197H227.615C231.582 15.8197 234.948 16.2605 237.713 17.1421C240.519 18.0237 242.823 19.2059 244.626 20.6886C246.429 22.1312 247.832 23.7942 248.834 25.6776C249.876 27.521 250.597 29.4444 250.998 31.4481C251.398 33.4116 251.599 35.3151 251.599 37.1584C251.599 39.9235 251.198 42.6684 250.396 45.3934C249.635 48.0783 248.353 50.5227 246.55 52.7267C244.746 54.9307 242.322 56.6939 239.276 58.0163C236.271 59.3387 232.504 59.9999 227.976 59.9999H216.976ZM223.708 54.0491H228.697C231.662 54.0491 234.147 53.5883 236.151 52.6666C238.194 51.7449 239.817 50.5027 241.019 48.9398C242.262 47.3369 243.143 45.5537 243.664 43.5901C244.225 41.5865 244.506 39.5428 244.506 37.459C244.506 34.6138 244.005 32.0091 243.003 29.6448C242.001 27.2404 240.338 25.317 238.014 23.8743C235.73 22.4317 232.624 21.7104 228.697 21.7104H223.708V54.0491ZM279.498 60.601C276.493 60.601 273.648 60.08 270.963 59.0382C268.318 57.9963 265.974 56.4935 263.93 54.53C261.886 52.5263 260.263 50.122 259.061 47.3169C257.899 44.5118 257.318 41.346 257.318 37.8196C257.318 34.2532 257.899 31.0674 259.061 28.2623C260.263 25.4572 261.886 23.0729 263.93 21.1093C266.014 19.1458 268.378 17.6631 271.023 16.6612C273.708 15.6194 276.533 15.0984 279.498 15.0984C282.464 15.0984 285.269 15.6194 287.913 16.6612C290.598 17.6631 292.963 19.1458 295.006 21.1093C297.09 23.0729 298.713 25.4572 299.875 28.2623C301.077 31.0674 301.678 34.2532 301.678 37.8196C301.678 41.346 301.077 44.5118 299.875 47.3169C298.713 50.122 297.11 52.5263 295.066 54.53C293.023 56.4935 290.658 57.9963 287.974 59.0382C285.329 60.08 282.504 60.601 279.498 60.601ZM279.498 54.53C282.223 54.53 284.728 53.8888 287.012 52.6065C289.296 51.3242 291.119 49.4608 292.482 47.0163C293.844 44.5318 294.525 41.4863 294.525 37.8798C294.525 34.2331 293.844 31.1876 292.482 28.7432C291.119 26.2587 289.296 24.3953 287.012 23.153C284.768 21.8707 282.263 21.2295 279.498 21.2295C276.733 21.2295 274.209 21.8707 271.924 23.153C269.68 24.3953 267.877 26.2587 266.515 28.7432C265.152 31.1876 264.471 34.2331 264.471 37.8798C264.471 41.4863 265.172 44.5318 266.575 47.0163C267.977 49.4608 269.821 51.3242 272.105 52.6065C274.389 53.8888 276.853 54.53 279.498 54.53Z" fill="black"/>
<path d="M131.027 85.8544V75.7466H133.874C134.984 75.7466 135.82 75.9933 136.38 76.4869C136.949 76.9804 137.234 77.6542 137.234 78.5084C137.234 78.926 137.134 79.3009 136.935 79.6331C136.736 79.9653 136.456 80.2263 136.095 80.4161C135.734 80.6059 135.317 80.7008 134.842 80.7008V80.6154C135.431 80.6154 135.934 80.7151 136.351 80.9144C136.778 81.1137 137.101 81.3937 137.319 81.7543C137.547 82.115 137.661 82.5421 137.661 83.0356C137.661 83.9088 137.357 84.5968 136.75 85.0999C136.142 85.6029 135.302 85.8544 134.23 85.8544H131.027ZM132.251 84.6585H134.244C134.975 84.6585 135.511 84.5162 135.853 84.2314C136.204 83.9467 136.38 83.5481 136.38 83.0356C136.38 82.4946 136.199 82.0723 135.839 81.7686C135.478 81.4648 134.947 81.313 134.244 81.313H132.251V84.6585ZM132.251 80.1171H133.931C134.633 80.1171 135.146 79.9795 135.469 79.7043C135.791 79.429 135.953 79.0399 135.953 78.5369C135.953 78.0244 135.791 77.6305 135.469 77.3553C135.146 77.08 134.633 76.9424 133.931 76.9424H132.251V80.1171ZM145.727 86.0252C144.978 86.0252 144.38 85.7737 143.934 85.2707C143.488 84.7582 143.264 84.0559 143.264 83.1637V78.3091H144.46V82.8363C144.46 83.5671 144.588 84.1081 144.845 84.4592C145.11 84.8009 145.514 84.9717 146.055 84.9717C146.643 84.9717 147.108 84.7819 147.45 84.4023C147.792 84.0132 147.962 83.4817 147.962 82.8078V78.3091H149.158V85.8544H148.019V83.9894L148.204 84.0891C148.053 84.706 147.763 85.1853 147.336 85.527C146.909 85.8591 146.373 86.0252 145.727 86.0252ZM158.392 85.8544V78.3091H159.588V85.8544H158.392ZM155.36 85.8544V84.8009H162.193V85.8544H155.36ZM155.502 79.3626V78.3091H159.588V79.3626H155.502ZM158.278 77.1275V75.7323H159.531V77.1275H158.278ZM170.345 85.8544V77.7681C170.345 77.4644 170.26 77.2272 170.089 77.0563C169.918 76.8855 169.681 76.8001 169.377 76.8001H167.598V75.7466H169.434C170.127 75.7466 170.649 75.9269 171 76.2876C171.361 76.6387 171.541 77.1607 171.541 77.8536V85.8544H170.345ZM167.313 85.8544V84.8009H174.146V85.8544H167.313ZM182.497 86.0252C181.833 86.0252 181.259 85.8639 180.775 85.5412C180.291 85.2185 179.916 84.7629 179.65 84.1745C179.394 83.5861 179.266 82.8885 179.266 82.0818C179.266 81.275 179.394 80.5774 179.65 79.989C179.916 79.4006 180.291 78.945 180.775 78.6223C181.259 78.2996 181.833 78.1383 182.497 78.1383C183.029 78.1383 183.494 78.2664 183.893 78.5227C184.291 78.7694 184.581 79.0494 184.761 79.3626V75.7466H185.957V85.8544H184.875L184.832 84.7155C184.623 85.1236 184.315 85.4463 183.907 85.6836C183.499 85.9113 183.029 86.0252 182.497 86.0252ZM182.569 84.8863C183.024 84.8863 183.413 84.7724 183.736 84.5446C184.068 84.3169 184.32 83.9942 184.491 83.5766C184.671 83.1495 184.761 82.6512 184.761 82.0818C184.761 81.4933 184.671 80.9903 184.491 80.5727C184.32 80.1551 184.068 79.8372 183.736 79.6189C183.404 79.3911 183.005 79.2772 182.54 79.2772C181.923 79.2772 181.43 79.5287 181.06 80.0317C180.699 80.5252 180.519 81.2086 180.519 82.0818C180.519 82.9454 180.699 83.6288 181.06 84.1318C181.43 84.6348 181.933 84.8863 182.569 84.8863ZM194.351 86.0822C193.383 86.0822 192.619 85.8496 192.059 85.3846C191.499 84.91 191.219 84.2409 191.219 83.3773C191.219 82.9407 191.28 82.5563 191.404 82.2241C191.527 81.8824 191.731 81.555 192.016 81.2418C192.31 80.9286 192.709 80.5964 193.212 80.2453C192.994 79.9605 192.808 79.6948 192.657 79.448C192.505 79.1918 192.386 78.9355 192.301 78.6793C192.225 78.423 192.187 78.1478 192.187 77.8536C192.187 77.1228 192.405 76.5533 192.842 76.1452C193.288 75.7276 193.895 75.5188 194.664 75.5188C195.423 75.5188 196.007 75.7134 196.415 76.1025C196.823 76.4821 197.027 77.0089 197.027 77.6827C197.027 78.2237 196.866 78.7125 196.543 79.1491C196.22 79.5762 195.679 80.0412 194.92 80.5442L197.227 83.4912C197.397 83.2539 197.525 82.9549 197.611 82.5943C197.696 82.2336 197.739 81.8113 197.739 81.3272L198.935 81.4411C198.925 82.0106 198.83 82.561 198.65 83.0925C198.479 83.624 198.256 84.0559 197.981 84.388L199.191 85.8544H197.753L197.227 85.2138C196.951 85.4795 196.572 85.693 196.088 85.8544C195.613 86.0062 195.034 86.0822 194.351 86.0822ZM194.493 84.9433C194.977 84.9433 195.381 84.8863 195.703 84.7724C196.026 84.6585 196.268 84.5162 196.429 84.3453L193.924 81.1849C193.411 81.536 193.046 81.8777 192.827 82.2099C192.609 82.5421 192.5 82.9312 192.5 83.3773C192.5 83.8518 192.657 84.2314 192.97 84.5162C193.293 84.8009 193.8 84.9433 194.493 84.9433ZM194.265 79.6758C194.626 79.448 194.915 79.2392 195.134 79.0494C195.352 78.8501 195.509 78.646 195.604 78.4372C195.698 78.2284 195.746 78.0054 195.746 77.7681C195.746 77.4265 195.651 77.1655 195.461 76.9851C195.271 76.8048 195.006 76.7146 194.664 76.7146C194.284 76.7146 193.99 76.8143 193.781 77.0136C193.573 77.2129 193.468 77.4929 193.468 77.8536C193.468 78.0434 193.492 78.2332 193.539 78.423C193.587 78.6033 193.667 78.7932 193.781 78.9925C193.905 79.1918 194.066 79.4196 194.265 79.6758ZM206.831 85.8544V76.9424H203.741V75.7466H211.144V76.9424H208.055V85.8544H206.831ZM218.655 85.8544V78.3091H219.652L219.766 80.2168L219.652 80.1883C219.747 79.5429 219.951 79.0684 220.264 78.7647C220.587 78.461 221.014 78.3091 221.545 78.3091H223.097V79.3911H221.56C221.189 79.3911 220.876 79.467 220.62 79.6189C220.373 79.7612 220.183 79.9748 220.051 80.2595C219.918 80.5347 219.851 80.8812 219.851 81.2988V85.8544H218.655ZM216.691 85.8544V84.8009H222.243V85.8544H216.691ZM216.691 79.3626V78.3091H219.31V79.3626H216.691ZM230.922 86.0252C230.447 86.0252 230.02 85.9398 229.64 85.769C229.261 85.5981 228.962 85.3609 228.743 85.0572C228.525 84.744 228.416 84.3833 228.416 83.9752C228.416 83.3298 228.606 82.8315 228.985 82.4804C229.375 82.1197 229.982 81.8587 230.808 81.6974L233.342 81.1849C233.342 80.5395 233.195 80.0602 232.9 79.747C232.616 79.4338 232.203 79.2772 231.662 79.2772C231.14 79.2772 230.732 79.3958 230.438 79.6331C230.143 79.8609 229.939 80.1931 229.825 80.6296L228.558 80.53C228.701 79.8182 229.038 79.244 229.569 78.8074C230.11 78.3613 230.808 78.1383 231.662 78.1383C232.573 78.1383 233.28 78.4135 233.783 78.964C234.286 79.505 234.538 80.2548 234.538 81.2133V84.3453C234.538 84.5162 234.576 84.6348 234.651 84.7012C234.727 84.7677 234.841 84.8009 234.993 84.8009H235.477V85.8544C235.42 85.8639 235.33 85.8686 235.207 85.8686C235.083 85.8781 234.965 85.8829 234.851 85.8829C234.528 85.8829 234.253 85.8307 234.025 85.7263C233.807 85.6219 233.641 85.4558 233.527 85.228C233.413 84.9907 233.351 84.687 233.342 84.3169H233.57C233.503 84.6396 233.342 84.9338 233.085 85.1995C232.839 85.4558 232.526 85.6598 232.146 85.8117C231.766 85.954 231.358 86.0252 230.922 86.0252ZM231.035 84.9717C231.548 84.9717 231.975 84.8863 232.317 84.7155C232.658 84.5352 232.915 84.2884 233.085 83.9752C233.256 83.6525 233.342 83.2824 233.342 82.8648V82.2099L231.035 82.6654C230.523 82.7604 230.167 82.9075 229.968 83.1068C229.768 83.2966 229.669 83.5481 229.669 83.8613C229.669 84.2125 229.787 84.4877 230.025 84.687C230.271 84.8768 230.608 84.9717 231.035 84.9717ZM244.355 86.0252C243.653 86.0252 243.041 85.8639 242.519 85.5412C241.997 85.2185 241.593 84.7629 241.309 84.1745C241.024 83.5766 240.881 82.879 240.881 82.0818C240.881 81.2845 241.024 80.5917 241.309 80.0032C241.593 79.4148 241.997 78.9592 242.519 78.6366C243.041 78.3044 243.653 78.1383 244.355 78.1383C244.915 78.1383 245.413 78.2427 245.85 78.4515C246.287 78.6508 246.647 78.945 246.932 79.3341C247.217 79.7233 247.411 80.1978 247.516 80.7578L246.263 80.8432C246.149 80.3402 245.921 79.9558 245.579 79.69C245.247 79.4148 244.839 79.2772 244.355 79.2772C243.662 79.2772 243.117 79.5287 242.718 80.0317C242.329 80.5252 242.134 81.2086 242.134 82.0818C242.134 82.9549 242.329 83.643 242.718 84.146C243.117 84.6396 243.662 84.8863 244.355 84.8863C244.839 84.8863 245.257 84.744 245.608 84.4592C245.969 84.1745 246.206 83.7474 246.32 83.178L247.573 83.2634C247.468 83.8233 247.269 84.3121 246.975 84.7297C246.68 85.1378 246.31 85.4558 245.864 85.6836C245.418 85.9113 244.915 86.0252 244.355 86.0252ZM253.404 85.8544V75.7466H254.6V82.3665L258.273 78.3091H259.867L256.892 81.5123L260.01 85.8544H258.557L256.08 82.3238L254.6 83.8898V85.8544H253.404ZM276.968 85.8544L280.043 75.7466H281.695L284.77 85.8544H283.46L280.869 76.857L278.278 85.8544H276.968ZM278.52 82.9786L278.947 81.7828H282.791L283.218 82.9786H278.52ZM290.117 85.8544V75.7466H292.964C294.075 75.7466 294.91 75.9933 295.47 76.4869C296.039 76.9804 296.324 77.6542 296.324 78.5084C296.324 78.926 296.224 79.3009 296.025 79.6331C295.826 79.9653 295.546 80.2263 295.185 80.4161C294.825 80.6059 294.407 80.7008 293.932 80.7008V80.6154C294.521 80.6154 295.024 80.7151 295.441 80.9144C295.869 81.1137 296.191 81.3937 296.409 81.7543C296.637 82.115 296.751 82.5421 296.751 83.0356C296.751 83.9088 296.447 84.5968 295.84 85.0999C295.233 85.6029 294.393 85.8544 293.32 85.8544H290.117ZM291.341 84.6585H293.334C294.065 84.6585 294.601 84.5162 294.943 84.2314C295.294 83.9467 295.47 83.5481 295.47 83.0356C295.47 82.4946 295.29 82.0723 294.929 81.7686C294.568 81.4648 294.037 81.313 293.334 81.313H291.341V84.6585ZM291.341 80.1171H293.021C293.724 80.1171 294.236 79.9795 294.559 79.7043C294.881 79.429 295.043 79.0399 295.043 78.5369C295.043 78.0244 294.881 77.6305 294.559 77.3553C294.236 77.08 293.724 76.9424 293.021 76.9424H291.341V80.1171Z" fill="black" fill-opacity="0.8"/>
<path d="M131.027 85.8544V75.7466H133.874C134.984 75.7466 135.82 75.9933 136.38 76.4869C136.949 76.9804 137.234 77.6542 137.234 78.5084C137.234 78.926 137.134 79.3009 136.935 79.6331C136.736 79.9653 136.456 80.2263 136.095 80.4161C135.734 80.6059 135.317 80.7008 134.842 80.7008V80.6154C135.431 80.6154 135.934 80.7151 136.351 80.9144C136.778 81.1137 137.101 81.3937 137.319 81.7543C137.547 82.115 137.661 82.5421 137.661 83.0356C137.661 83.9088 137.357 84.5968 136.75 85.0999C136.142 85.6029 135.302 85.8544 134.23 85.8544H131.027ZM132.251 84.6585H134.244C134.975 84.6585 135.511 84.5162 135.853 84.2314C136.204 83.9467 136.38 83.5481 136.38 83.0356C136.38 82.4946 136.199 82.0723 135.839 81.7686C135.478 81.4648 134.947 81.313 134.244 81.313H132.251V84.6585ZM132.251 80.1171H133.931C134.633 80.1171 135.146 79.9795 135.469 79.7043C135.791 79.429 135.953 79.0399 135.953 78.5369C135.953 78.0244 135.791 77.6305 135.469 77.3553C135.146 77.08 134.633 76.9424 133.931 76.9424H132.251V80.1171ZM145.727 86.0252C144.978 86.0252 144.38 85.7737 143.934 85.2707C143.488 84.7582 143.264 84.0559 143.264 83.1637V78.3091H144.46V82.8363C144.46 83.5671 144.588 84.1081 144.845 84.4592C145.11 84.8009 145.514 84.9717 146.055 84.9717C146.643 84.9717 147.108 84.7819 147.45 84.4023C147.792 84.0132 147.962 83.4817 147.962 82.8078V78.3091H149.158V85.8544H148.019V83.9894L148.204 84.0891C148.053 84.706 147.763 85.1853 147.336 85.527C146.909 85.8591 146.373 86.0252 145.727 86.0252ZM158.392 85.8544V78.3091H159.588V85.8544H158.392ZM155.36 85.8544V84.8009H162.193V85.8544H155.36ZM155.502 79.3626V78.3091H159.588V79.3626H155.502ZM158.278 77.1275V75.7323H159.531V77.1275H158.278ZM170.345 85.8544V77.7681C170.345 77.4644 170.26 77.2272 170.089 77.0563C169.918 76.8855 169.681 76.8001 169.377 76.8001H167.598V75.7466H169.434C170.127 75.7466 170.649 75.9269 171 76.2876C171.361 76.6387 171.541 77.1607 171.541 77.8536V85.8544H170.345ZM167.313 85.8544V84.8009H174.146V85.8544H167.313ZM182.497 86.0252C181.833 86.0252 181.259 85.8639 180.775 85.5412C180.291 85.2185 179.916 84.7629 179.65 84.1745C179.394 83.5861 179.266 82.8885 179.266 82.0818C179.266 81.275 179.394 80.5774 179.65 79.989C179.916 79.4006 180.291 78.945 180.775 78.6223C181.259 78.2996 181.833 78.1383 182.497 78.1383C183.029 78.1383 183.494 78.2664 183.893 78.5227C184.291 78.7694 184.581 79.0494 184.761 79.3626V75.7466H185.957V85.8544H184.875L184.832 84.7155C184.623 85.1236 184.315 85.4463 183.907 85.6836C183.499 85.9113 183.029 86.0252 182.497 86.0252ZM182.569 84.8863C183.024 84.8863 183.413 84.7724 183.736 84.5446C184.068 84.3169 184.32 83.9942 184.491 83.5766C184.671 83.1495 184.761 82.6512 184.761 82.0818C184.761 81.4933 184.671 80.9903 184.491 80.5727C184.32 80.1551 184.068 79.8372 183.736 79.6189C183.404 79.3911 183.005 79.2772 182.54 79.2772C181.923 79.2772 181.43 79.5287 181.06 80.0317C180.699 80.5252 180.519 81.2086 180.519 82.0818C180.519 82.9454 180.699 83.6288 181.06 84.1318C181.43 84.6348 181.933 84.8863 182.569 84.8863ZM194.351 86.0822C193.383 86.0822 192.619 85.8496 192.059 85.3846C191.499 84.91 191.219 84.2409 191.219 83.3773C191.219 82.9407 191.28 82.5563 191.404 82.2241C191.527 81.8824 191.731 81.555 192.016 81.2418C192.31 80.9286 192.709 80.5964 193.212 80.2453C192.994 79.9605 192.808 79.6948 192.657 79.448C192.505 79.1918 192.386 78.9355 192.301 78.6793C192.225 78.423 192.187 78.1478 192.187 77.8536C192.187 77.1228 192.405 76.5533 192.842 76.1452C193.288 75.7276 193.895 75.5188 194.664 75.5188C195.423 75.5188 196.007 75.7134 196.415 76.1025C196.823 76.4821 197.027 77.0089 197.027 77.6827C197.027 78.2237 196.866 78.7125 196.543 79.1491C196.22 79.5762 195.679 80.0412 194.92 80.5442L197.227 83.4912C197.397 83.2539 197.525 82.9549 197.611 82.5943C197.696 82.2336 197.739 81.8113 197.739 81.3272L198.935 81.4411C198.925 82.0106 198.83 82.561 198.65 83.0925C198.479 83.624 198.256 84.0559 197.981 84.388L199.191 85.8544H197.753L197.227 85.2138C196.951 85.4795 196.572 85.693 196.088 85.8544C195.613 86.0062 195.034 86.0822 194.351 86.0822ZM194.493 84.9433C194.977 84.9433 195.381 84.8863 195.703 84.7724C196.026 84.6585 196.268 84.5162 196.429 84.3453L193.924 81.1849C193.411 81.536 193.046 81.8777 192.827 82.2099C192.609 82.5421 192.5 82.9312 192.5 83.3773C192.5 83.8518 192.657 84.2314 192.97 84.5162C193.293 84.8009 193.8 84.9433 194.493 84.9433ZM194.265 79.6758C194.626 79.448 194.915 79.2392 195.134 79.0494C195.352 78.8501 195.509 78.646 195.604 78.4372C195.698 78.2284 195.746 78.0054 195.746 77.7681C195.746 77.4265 195.651 77.1655 195.461 76.9851C195.271 76.8048 195.006 76.7146 194.664 76.7146C194.284 76.7146 193.99 76.8143 193.781 77.0136C193.573 77.2129 193.468 77.4929 193.468 77.8536C193.468 78.0434 193.492 78.2332 193.539 78.423C193.587 78.6033 193.667 78.7932 193.781 78.9925C193.905 79.1918 194.066 79.4196 194.265 79.6758ZM206.831 85.8544V76.9424H203.741V75.7466H211.144V76.9424H208.055V85.8544H206.831ZM218.655 85.8544V78.3091H219.652L219.766 80.2168L219.652 80.1883C219.747 79.5429 219.951 79.0684 220.264 78.7647C220.587 78.461 221.014 78.3091 221.545 78.3091H223.097V79.3911H221.56C221.189 79.3911 220.876 79.467 220.62 79.6189C220.373 79.7612 220.183 79.9748 220.051 80.2595C219.918 80.5347 219.851 80.8812 219.851 81.2988V85.8544H218.655ZM216.691 85.8544V84.8009H222.243V85.8544H216.691ZM216.691 79.3626V78.3091H219.31V79.3626H216.691ZM230.922 86.0252C230.447 86.0252 230.02 85.9398 229.64 85.769C229.261 85.5981 228.962 85.3609 228.743 85.0572C228.525 84.744 228.416 84.3833 228.416 83.9752C228.416 83.3298 228.606 82.8315 228.985 82.4804C229.375 82.1197 229.982 81.8587 230.808 81.6974L233.342 81.1849C233.342 80.5395 233.195 80.0602 232.9 79.747C232.616 79.4338 232.203 79.2772 231.662 79.2772C231.14 79.2772 230.732 79.3958 230.438 79.6331C230.143 79.8609 229.939 80.1931 229.825 80.6296L228.558 80.53C228.701 79.8182 229.038 79.244 229.569 78.8074C230.11 78.3613 230.808 78.1383 231.662 78.1383C232.573 78.1383 233.28 78.4135 233.783 78.964C234.286 79.505 234.538 80.2548 234.538 81.2133V84.3453C234.538 84.5162 234.576 84.6348 234.651 84.7012C234.727 84.7677 234.841 84.8009 234.993 84.8009H235.477V85.8544C235.42 85.8639 235.33 85.8686 235.207 85.8686C235.083 85.8781 234.965 85.8829 234.851 85.8829C234.528 85.8829 234.253 85.8307 234.025 85.7263C233.807 85.6219 233.641 85.4558 233.527 85.228C233.413 84.9907 233.351 84.687 233.342 84.3169H233.57C233.503 84.6396 233.342 84.9338 233.085 85.1995C232.839 85.4558 232.526 85.6598 232.146 85.8117C231.766 85.954 231.358 86.0252 230.922 86.0252ZM231.035 84.9717C231.548 84.9717 231.975 84.8863 232.317 84.7155C232.658 84.5352 232.915 84.2884 233.085 83.9752C233.256 83.6525 233.342 83.2824 233.342 82.8648V82.2099L231.035 82.6654C230.523 82.7604 230.167 82.9075 229.968 83.1068C229.768 83.2966 229.669 83.5481 229.669 83.8613C229.669 84.2125 229.787 84.4877 230.025 84.687C230.271 84.8768 230.608 84.9717 231.035 84.9717ZM244.355 86.0252C243.653 86.0252 243.041 85.8639 242.519 85.5412C241.997 85.2185 241.593 84.7629 241.309 84.1745C241.024 83.5766 240.881 82.879 240.881 82.0818C240.881 81.2845 241.024 80.5917 241.309 80.0032C241.593 79.4148 241.997 78.9592 242.519 78.6366C243.041 78.3044 243.653 78.1383 244.355 78.1383C244.915 78.1383 245.413 78.2427 245.85 78.4515C246.287 78.6508 246.647 78.945 246.932 79.3341C247.217 79.7233 247.411 80.1978 247.516 80.7578L246.263 80.8432C246.149 80.3402 245.921 79.9558 245.579 79.69C245.247 79.4148 244.839 79.2772 244.355 79.2772C243.662 79.2772 243.117 79.5287 242.718 80.0317C242.329 80.5252 242.134 81.2086 242.134 82.0818C242.134 82.9549 242.329 83.643 242.718 84.146C243.117 84.6396 243.662 84.8863 244.355 84.8863C244.839 84.8863 245.257 84.744 245.608 84.4592C245.969 84.1745 246.206 83.7474 246.32 83.178L247.573 83.2634C247.468 83.8233 247.269 84.3121 246.975 84.7297C246.68 85.1378 246.31 85.4558 245.864 85.6836C245.418 85.9113 244.915 86.0252 244.355 86.0252ZM253.404 85.8544V75.7466H254.6V82.3665L258.273 78.3091H259.867L256.892 81.5123L260.01 85.8544H258.557L256.08 82.3238L254.6 83.8898V85.8544H253.404ZM276.968 85.8544L280.043 75.7466H281.695L284.77 85.8544H283.46L280.869 76.857L278.278 85.8544H276.968ZM278.52 82.9786L278.947 81.7828H282.791L283.218 82.9786H278.52ZM290.117 85.8544V75.7466H292.964C294.075 75.7466 294.91 75.9933 295.47 76.4869C296.039 76.9804 296.324 77.6542 296.324 78.5084C296.324 78.926 296.224 79.3009 296.025 79.6331C295.826 79.9653 295.546 80.2263 295.185 80.4161C294.825 80.6059 294.407 80.7008 293.932 80.7008V80.6154C294.521 80.6154 295.024 80.7151 295.441 80.9144C295.869 81.1137 296.191 81.3937 296.409 81.7543C296.637 82.115 296.751 82.5421 296.751 83.0356C296.751 83.9088 296.447 84.5968 295.84 85.0999C295.233 85.6029 294.393 85.8544 293.32 85.8544H290.117ZM291.341 84.6585H293.334C294.065 84.6585 294.601 84.5162 294.943 84.2314C295.294 83.9467 295.47 83.5481 295.47 83.0356C295.47 82.4946 295.29 82.0723 294.929 81.7686C294.568 81.4648 294.037 81.313 293.334 81.313H291.341V84.6585ZM291.341 80.1171H293.021C293.724 80.1171 294.236 79.9795 294.559 79.7043C294.881 79.429 295.043 79.0399 295.043 78.5369C295.043 78.0244 294.881 77.6305 294.559 77.3553C294.236 77.08 293.724 76.9424 293.021 76.9424H291.341V80.1171Z" fill="#D8D0B3" fill-opacity="0.2"/>
<path d="M131.027 85.8544V75.7466H133.874C134.984 75.7466 135.82 75.9933 136.38 76.4869C136.949 76.9804 137.234 77.6542 137.234 78.5084C137.234 78.926 137.134 79.3009 136.935 79.6331C136.736 79.9653 136.456 80.2263 136.095 80.4161C135.734 80.6059 135.317 80.7008 134.842 80.7008V80.6154C135.431 80.6154 135.934 80.7151 136.351 80.9144C136.778 81.1137 137.101 81.3937 137.319 81.7543C137.547 82.115 137.661 82.5421 137.661 83.0356C137.661 83.9088 137.357 84.5968 136.75 85.0999C136.142 85.6029 135.302 85.8544 134.23 85.8544H131.027ZM132.251 84.6585H134.244C134.975 84.6585 135.511 84.5162 135.853 84.2314C136.204 83.9467 136.38 83.5481 136.38 83.0356C136.38 82.4946 136.199 82.0723 135.839 81.7686C135.478 81.4648 134.947 81.313 134.244 81.313H132.251V84.6585ZM132.251 80.1171H133.931C134.633 80.1171 135.146 79.9795 135.469 79.7043C135.791 79.429 135.953 79.0399 135.953 78.5369C135.953 78.0244 135.791 77.6305 135.469 77.3553C135.146 77.08 134.633 76.9424 133.931 76.9424H132.251V80.1171ZM145.727 86.0252C144.978 86.0252 144.38 85.7737 143.934 85.2707C143.488 84.7582 143.264 84.0559 143.264 83.1637V78.3091H144.46V82.8363C144.46 83.5671 144.588 84.1081 144.845 84.4592C145.11 84.8009 145.514 84.9717 146.055 84.9717C146.643 84.9717 147.108 84.7819 147.45 84.4023C147.792 84.0132 147.962 83.4817 147.962 82.8078V78.3091H149.158V85.8544H148.019V83.9894L148.204 84.0891C148.053 84.706 147.763 85.1853 147.336 85.527C146.909 85.8591 146.373 86.0252 145.727 86.0252ZM158.392 85.8544V78.3091H159.588V85.8544H158.392ZM155.36 85.8544V84.8009H162.193V85.8544H155.36ZM155.502 79.3626V78.3091H159.588V79.3626H155.502ZM158.278 77.1275V75.7323H159.531V77.1275H158.278ZM170.345 85.8544V77.7681C170.345 77.4644 170.26 77.2272 170.089 77.0563C169.918 76.8855 169.681 76.8001 169.377 76.8001H167.598V75.7466H169.434C170.127 75.7466 170.649 75.9269 171 76.2876C171.361 76.6387 171.541 77.1607 171.541 77.8536V85.8544H170.345ZM167.313 85.8544V84.8009H174.146V85.8544H167.313ZM182.497 86.0252C181.833 86.0252 181.259 85.8639 180.775 85.5412C180.291 85.2185 179.916 84.7629 179.65 84.1745C179.394 83.5861 179.266 82.8885 179.266 82.0818C179.266 81.275 179.394 80.5774 179.65 79.989C179.916 79.4006 180.291 78.945 180.775 78.6223C181.259 78.2996 181.833 78.1383 182.497 78.1383C183.029 78.1383 183.494 78.2664 183.893 78.5227C184.291 78.7694 184.581 79.0494 184.761 79.3626V75.7466H185.957V85.8544H184.875L184.832 84.7155C184.623 85.1236 184.315 85.4463 183.907 85.6836C183.499 85.9113 183.029 86.0252 182.497 86.0252ZM182.569 84.8863C183.024 84.8863 183.413 84.7724 183.736 84.5446C184.068 84.3169 184.32 83.9942 184.491 83.5766C184.671 83.1495 184.761 82.6512 184.761 82.0818C184.761 81.4933 184.671 80.9903 184.491 80.5727C184.32 80.1551 184.068 79.8372 183.736 79.6189C183.404 79.3911 183.005 79.2772 182.54 79.2772C181.923 79.2772 181.43 79.5287 181.06 80.0317C180.699 80.5252 180.519 81.2086 180.519 82.0818C180.519 82.9454 180.699 83.6288 181.06 84.1318C181.43 84.6348 181.933 84.8863 182.569 84.8863ZM194.351 86.0822C193.383 86.0822 192.619 85.8496 192.059 85.3846C191.499 84.91 191.219 84.2409 191.219 83.3773C191.219 82.9407 191.28 82.5563 191.404 82.2241C191.527 81.8824 191.731 81.555 192.016 81.2418C192.31 80.9286 192.709 80.5964 193.212 80.2453C192.994 79.9605 192.808 79.6948 192.657 79.448C192.505 79.1918 192.386 78.9355 192.301 78.6793C192.225 78.423 192.187 78.1478 192.187 77.8536C192.187 77.1228 192.405 76.5533 192.842 76.1452C193.288 75.7276 193.895 75.5188 194.664 75.5188C195.423 75.5188 196.007 75.7134 196.415 76.1025C196.823 76.4821 197.027 77.0089 197.027 77.6827C197.027 78.2237 196.866 78.7125 196.543 79.1491C196.22 79.5762 195.679 80.0412 194.92 80.5442L197.227 83.4912C197.397 83.2539 197.525 82.9549 197.611 82.5943C197.696 82.2336 197.739 81.8113 197.739 81.3272L198.935 81.4411C198.925 82.0106 198.83 82.561 198.65 83.0925C198.479 83.624 198.256 84.0559 197.981 84.388L199.191 85.8544H197.753L197.227 85.2138C196.951 85.4795 196.572 85.693 196.088 85.8544C195.613 86.0062 195.034 86.0822 194.351 86.0822ZM194.493 84.9433C194.977 84.9433 195.381 84.8863 195.703 84.7724C196.026 84.6585 196.268 84.5162 196.429 84.3453L193.924 81.1849C193.411 81.536 193.046 81.8777 192.827 82.2099C192.609 82.5421 192.5 82.9312 192.5 83.3773C192.5 83.8518 192.657 84.2314 192.97 84.5162C193.293 84.8009 193.8 84.9433 194.493 84.9433ZM194.265 79.6758C194.626 79.448 194.915 79.2392 195.134 79.0494C195.352 78.8501 195.509 78.646 195.604 78.4372C195.698 78.2284 195.746 78.0054 195.746 77.7681C195.746 77.4265 195.651 77.1655 195.461 76.9851C195.271 76.8048 195.006 76.7146 194.664 76.7146C194.284 76.7146 193.99 76.8143 193.781 77.0136C193.573 77.2129 193.468 77.4929 193.468 77.8536C193.468 78.0434 193.492 78.2332 193.539 78.423C193.587 78.6033 193.667 78.7932 193.781 78.9925C193.905 79.1918 194.066 79.4196 194.265 79.6758ZM206.831 85.8544V76.9424H203.741V75.7466H211.144V76.9424H208.055V85.8544H206.831ZM218.655 85.8544V78.3091H219.652L219.766 80.2168L219.652 80.1883C219.747 79.5429 219.951 79.0684 220.264 78.7647C220.587 78.461 221.014 78.3091 221.545 78.3091H223.097V79.3911H221.56C221.189 79.3911 220.876 79.467 220.62 79.6189C220.373 79.7612 220.183 79.9748 220.051 80.2595C219.918 80.5347 219.851 80.8812 219.851 81.2988V85.8544H218.655ZM216.691 85.8544V84.8009H222.243V85.8544H216.691ZM216.691 79.3626V78.3091H219.31V79.3626H216.691ZM230.922 86.0252C230.447 86.0252 230.02 85.9398 229.64 85.769C229.261 85.5981 228.962 85.3609 228.743 85.0572C228.525 84.744 228.416 84.3833 228.416 83.9752C228.416 83.3298 228.606 82.8315 228.985 82.4804C229.375 82.1197 229.982 81.8587 230.808 81.6974L233.342 81.1849C233.342 80.5395 233.195 80.0602 232.9 79.747C232.616 79.4338 232.203 79.2772 231.662 79.2772C231.14 79.2772 230.732 79.3958 230.438 79.6331C230.143 79.8609 229.939 80.1931 229.825 80.6296L228.558 80.53C228.701 79.8182 229.038 79.244 229.569 78.8074C230.11 78.3613 230.808 78.1383 231.662 78.1383C232.573 78.1383 233.28 78.4135 233.783 78.964C234.286 79.505 234.538 80.2548 234.538 81.2133V84.3453C234.538 84.5162 234.576 84.6348 234.651 84.7012C234.727 84.7677 234.841 84.8009 234.993 84.8009H235.477V85.8544C235.42 85.8639 235.33 85.8686 235.207 85.8686C235.083 85.8781 234.965 85.8829 234.851 85.8829C234.528 85.8829 234.253 85.8307 234.025 85.7263C233.807 85.6219 233.641 85.4558 233.527 85.228C233.413 84.9907 233.351 84.687 233.342 84.3169H233.57C233.503 84.6396 233.342 84.9338 233.085 85.1995C232.839 85.4558 232.526 85.6598 232.146 85.8117C231.766 85.954 231.358 86.0252 230.922 86.0252ZM231.035 84.9717C231.548 84.9717 231.975 84.8863 232.317 84.7155C232.658 84.5352 232.915 84.2884 233.085 83.9752C233.256 83.6525 233.342 83.2824 233.342 82.8648V82.2099L231.035 82.6654C230.523 82.7604 230.167 82.9075 229.968 83.1068C229.768 83.2966 229.669 83.5481 229.669 83.8613C229.669 84.2125 229.787 84.4877 230.025 84.687C230.271 84.8768 230.608 84.9717 231.035 84.9717ZM244.355 86.0252C243.653 86.0252 243.041 85.8639 242.519 85.5412C241.997 85.2185 241.593 84.7629 241.309 84.1745C241.024 83.5766 240.881 82.879 240.881 82.0818C240.881 81.2845 241.024 80.5917 241.309 80.0032C241.593 79.4148 241.997 78.9592 242.519 78.6366C243.041 78.3044 243.653 78.1383 244.355 78.1383C244.915 78.1383 245.413 78.2427 245.85 78.4515C246.287 78.6508 246.647 78.945 246.932 79.3341C247.217 79.7233 247.411 80.1978 247.516 80.7578L246.263 80.8432C246.149 80.3402 245.921 79.9558 245.579 79.69C245.247 79.4148 244.839 79.2772 244.355 79.2772C243.662 79.2772 243.117 79.5287 242.718 80.0317C242.329 80.5252 242.134 81.2086 242.134 82.0818C242.134 82.9549 242.329 83.643 242.718 84.146C243.117 84.6396 243.662 84.8863 244.355 84.8863C244.839 84.8863 245.257 84.744 245.608 84.4592C245.969 84.1745 246.206 83.7474 246.32 83.178L247.573 83.2634C247.468 83.8233 247.269 84.3121 246.975 84.7297C246.68 85.1378 246.31 85.4558 245.864 85.6836C245.418 85.9113 244.915 86.0252 244.355 86.0252ZM253.404 85.8544V75.7466H254.6V82.3665L258.273 78.3091H259.867L256.892 81.5123L260.01 85.8544H258.557L256.08 82.3238L254.6 83.8898V85.8544H253.404ZM276.968 85.8544L280.043 75.7466H281.695L284.77 85.8544H283.46L280.869 76.857L278.278 85.8544H276.968ZM278.52 82.9786L278.947 81.7828H282.791L283.218 82.9786H278.52ZM290.117 85.8544V75.7466H292.964C294.075 75.7466 294.91 75.9933 295.47 76.4869C296.039 76.9804 296.324 77.6542 296.324 78.5084C296.324 78.926 296.224 79.3009 296.025 79.6331C295.826 79.9653 295.546 80.2263 295.185 80.4161C294.825 80.6059 294.407 80.7008 293.932 80.7008V80.6154C294.521 80.6154 295.024 80.7151 295.441 80.9144C295.869 81.1137 296.191 81.3937 296.409 81.7543C296.637 82.115 296.751 82.5421 296.751 83.0356C296.751 83.9088 296.447 84.5968 295.84 85.0999C295.233 85.6029 294.393 85.8544 293.32 85.8544H290.117ZM291.341 84.6585H293.334C294.065 84.6585 294.601 84.5162 294.943 84.2314C295.294 83.9467 295.47 83.5481 295.47 83.0356C295.47 82.4946 295.29 82.0723 294.929 81.7686C294.568 81.4648 294.037 81.313 293.334 81.313H291.341V84.6585ZM291.341 80.1171H293.021C293.724 80.1171 294.236 79.9795 294.559 79.7043C294.881 79.429 295.043 79.0399 295.043 78.5369C295.043 78.0244 294.881 77.6305 294.559 77.3553C294.236 77.08 293.724 76.9424 293.021 76.9424H291.341V80.1171Z" fill="#403F39"/>
</svg>
