<svg width="320" height="100" viewBox="0 0 320 100" fill="none" xmlns="http://www.w3.org/2000/svg">
<path d="M90 90H10V60L40 80L90 40V90Z" fill="#D8D0B3"/>
<path d="M90 20L40 60L10 40V10H90V20Z" fill="#D8D0B3"/>
<path d="M90 20L40 60L10 40V10H90V20Z" fill="#BDD5EC"/>
<path d="M129.689 60V15.8198H140.929C144.535 15.8198 147.381 16.1805 149.464 16.9018C151.588 17.6231 153.151 18.5448 154.153 19.6668C155.195 20.7888 155.876 21.971 156.197 23.2132C156.517 24.4555 156.677 25.6176 156.677 26.6996C156.677 27.8617 156.497 29.0839 156.137 30.3662C155.816 31.6085 155.255 32.7706 154.453 33.8525C153.652 34.8944 152.55 35.736 151.147 36.3771C154.153 37.1385 156.277 38.4609 157.519 40.3443C158.801 42.1877 159.443 44.2514 159.443 46.5356C159.443 48.0984 159.262 49.6813 158.902 51.2842C158.541 52.8871 157.779 54.3497 156.617 55.6721C155.495 56.9545 153.792 57.9964 151.508 58.7978C149.224 59.5993 146.158 60 142.311 60H129.689ZM136.301 34.5739H142.011C144.095 34.5739 145.698 34.2332 146.82 33.552C147.942 32.8307 148.723 31.909 149.164 30.787C149.645 29.6649 149.885 28.4828 149.885 27.2405C149.885 26.1987 149.645 25.2569 149.164 24.4154C148.723 23.5338 147.902 22.8325 146.699 22.3116C145.537 21.7907 143.874 21.5302 141.71 21.5302H136.301V34.5739ZM136.301 54.3497H143.213C145.257 54.3497 146.88 54.1093 148.082 53.6284C149.324 53.1476 150.266 52.5264 150.907 51.7651C151.548 51.0037 151.969 50.1822 152.169 49.3006C152.37 48.3789 152.47 47.4773 152.47 46.5957C152.47 44.5119 151.769 42.8889 150.366 41.7268C148.963 40.5247 146.759 39.9236 143.754 39.9236H136.301V54.3497ZM187.515 60.6011C184.509 60.6011 181.664 60.0801 178.979 59.0383C176.335 57.9964 173.99 56.4936 171.947 54.5301C169.903 52.5264 168.28 50.1221 167.078 47.317C165.916 44.5119 165.335 41.3461 165.335 37.8197C165.335 34.2533 165.916 31.0675 167.078 28.2624C168.28 25.4573 169.903 23.073 171.947 21.1094C174.03 19.1459 176.395 17.6632 179.039 16.6613C181.724 15.6195 184.549 15.0985 187.515 15.0985C190.48 15.0985 193.285 15.6195 195.93 16.6613C198.615 17.6632 200.979 19.1459 203.023 21.1094C205.107 23.073 206.73 25.4573 207.892 28.2624C209.094 31.0675 209.695 34.2533 209.695 37.8197C209.695 41.3461 209.094 44.5119 207.892 47.317C206.73 50.1221 205.127 52.5264 203.083 54.5301C201.039 56.4936 198.675 57.9964 195.99 59.0383C193.345 60.0801 190.52 60.6011 187.515 60.6011ZM187.515 54.5301C190.24 54.5301 192.744 53.8889 195.029 52.6066C197.313 51.3243 199.136 49.4609 200.498 47.0164C201.861 44.5319 202.542 41.4864 202.542 37.8799C202.542 34.2332 201.861 31.1877 200.498 28.7433C199.136 26.2588 197.313 24.3954 195.029 23.1531C192.784 21.8708 190.28 21.2296 187.515 21.2296C184.75 21.2296 182.225 21.8708 179.941 23.1531C177.697 24.3954 175.894 26.2588 174.531 28.7433C173.169 31.1877 172.488 34.2332 172.488 37.8799C172.488 41.4864 173.189 44.5319 174.591 47.0164C175.994 49.4609 177.837 51.3243 180.121 52.6066C182.406 53.8889 184.87 54.5301 187.515 54.5301ZM216.976 60V15.8198H227.615C231.582 15.8198 234.948 16.2606 237.713 17.1422C240.519 18.0238 242.823 19.206 244.626 20.6887C246.429 22.1313 247.832 23.7943 248.834 25.6777C249.876 27.5211 250.597 29.4445 250.998 31.4482C251.398 33.4117 251.599 35.3152 251.599 37.1585C251.599 39.9236 251.198 42.6685 250.396 45.3935C249.635 48.0784 248.353 50.5228 246.55 52.7268C244.746 54.9308 242.322 56.694 239.276 58.0164C236.271 59.3388 232.504 60 227.976 60H216.976ZM223.708 54.0492H228.697C231.662 54.0492 234.147 53.5884 236.151 52.6667C238.194 51.745 239.817 50.5028 241.019 48.9399C242.262 47.337 243.143 45.5538 243.664 43.5902C244.225 41.5866 244.506 39.5429 244.506 37.4591C244.506 34.6139 244.005 32.0092 243.003 29.6449C242.001 27.2405 240.338 25.3171 238.014 23.8744C235.73 22.4318 232.624 21.7105 228.697 21.7105H223.708V54.0492ZM279.498 60.6011C276.493 60.6011 273.648 60.0801 270.963 59.0383C268.318 57.9964 265.974 56.4936 263.93 54.5301C261.886 52.5264 260.263 50.1221 259.061 47.317C257.899 44.5119 257.318 41.3461 257.318 37.8197C257.318 34.2533 257.899 31.0675 259.061 28.2624C260.263 25.4573 261.886 23.073 263.93 21.1094C266.014 19.1459 268.378 17.6632 271.023 16.6613C273.708 15.6195 276.533 15.0985 279.498 15.0985C282.464 15.0985 285.269 15.6195 287.913 16.6613C290.598 17.6632 292.963 19.1459 295.006 21.1094C297.09 23.073 298.713 25.4573 299.875 28.2624C301.077 31.0675 301.678 34.2533 301.678 37.8197C301.678 41.3461 301.077 44.5119 299.875 47.317C298.713 50.1221 297.11 52.5264 295.066 54.5301C293.023 56.4936 290.658 57.9964 287.974 59.0383C285.329 60.0801 282.504 60.6011 279.498 60.6011ZM279.498 54.5301C282.223 54.5301 284.728 53.8889 287.012 52.6066C289.296 51.3243 291.119 49.4609 292.482 47.0164C293.844 44.5319 294.525 41.4864 294.525 37.8799C294.525 34.2332 293.844 31.1877 292.482 28.7433C291.119 26.2588 289.296 24.3954 287.012 23.1531C284.768 21.8708 282.263 21.2296 279.498 21.2296C276.733 21.2296 274.209 21.8708 271.924 23.1531C269.68 24.3954 267.877 26.2588 266.515 28.7433C265.152 31.1877 264.471 34.2332 264.471 37.8799C264.471 41.4864 265.172 44.5319 266.575 47.0164C267.977 49.4609 269.821 51.3243 272.105 52.6066C274.389 53.8889 276.853 54.5301 279.498 54.5301Z" fill="black"/>
<path d="M131.027 85.8545V75.7467H133.874C134.984 75.7467 135.82 75.9934 136.38 76.487C136.949 76.9805 137.234 77.6543 137.234 78.5085C137.234 78.9261 137.134 79.301 136.935 79.6332C136.736 79.9654 136.456 80.2264 136.095 80.4162C135.734 80.606 135.317 80.7009 134.842 80.7009V80.6155C135.431 80.6155 135.934 80.7152 136.351 80.9145C136.778 81.1138 137.101 81.3938 137.319 81.7544C137.547 82.1151 137.661 82.5422 137.661 83.0357C137.661 83.9089 137.357 84.5969 136.75 85.1C136.142 85.603 135.302 85.8545 134.23 85.8545H131.027ZM132.251 84.6586H134.244C134.975 84.6586 135.511 84.5163 135.853 84.2315C136.204 83.9468 136.38 83.5482 136.38 83.0357C136.38 82.4947 136.199 82.0724 135.839 81.7687C135.478 81.4649 134.947 81.3131 134.244 81.3131H132.251V84.6586ZM132.251 80.1172H133.931C134.633 80.1172 135.146 79.9796 135.469 79.7044C135.791 79.4291 135.953 79.04 135.953 78.537C135.953 78.0245 135.791 77.6306 135.469 77.3554C135.146 77.0801 134.633 76.9425 133.931 76.9425H132.251V80.1172ZM145.727 86.0253C144.978 86.0253 144.38 85.7738 143.934 85.2708C143.488 84.7583 143.264 84.056 143.264 83.1638V78.3092H144.46V82.8364C144.46 83.5672 144.588 84.1082 144.845 84.4593C145.11 84.801 145.514 84.9718 146.055 84.9718C146.643 84.9718 147.108 84.782 147.45 84.4024C147.792 84.0133 147.962 83.4818 147.962 82.8079V78.3092H149.158V85.8545H148.019V83.9895L148.204 84.0892C148.053 84.7061 147.763 85.1854 147.336 85.5271C146.909 85.8592 146.373 86.0253 145.727 86.0253ZM158.392 85.8545V78.3092H159.588V85.8545H158.392ZM155.36 85.8545V84.801H162.193V85.8545H155.36ZM155.502 79.3627V78.3092H159.588V79.3627H155.502ZM158.278 77.1276V75.7324H159.531V77.1276H158.278ZM170.345 85.8545V77.7682C170.345 77.4645 170.26 77.2273 170.089 77.0564C169.918 76.8856 169.681 76.8002 169.377 76.8002H167.598V75.7467H169.434C170.127 75.7467 170.649 75.927 171 76.2877C171.361 76.6388 171.541 77.1608 171.541 77.8537V85.8545H170.345ZM167.313 85.8545V84.801H174.146V85.8545H167.313ZM182.497 86.0253C181.833 86.0253 181.259 85.864 180.775 85.5413C180.291 85.2186 179.916 84.763 179.65 84.1746C179.394 83.5862 179.266 82.8886 179.266 82.0819C179.266 81.2751 179.394 80.5775 179.65 79.9891C179.916 79.4007 180.291 78.9451 180.775 78.6224C181.259 78.2997 181.833 78.1384 182.497 78.1384C183.029 78.1384 183.494 78.2665 183.893 78.5228C184.291 78.7695 184.581 79.0495 184.761 79.3627V75.7467H185.957V85.8545H184.875L184.832 84.7156C184.623 85.1237 184.315 85.4464 183.907 85.6837C183.499 85.9114 183.029 86.0253 182.497 86.0253ZM182.569 84.8864C183.024 84.8864 183.413 84.7725 183.736 84.5447C184.068 84.317 184.32 83.9943 184.491 83.5767C184.671 83.1496 184.761 82.6513 184.761 82.0819C184.761 81.4934 184.671 80.9904 184.491 80.5728C184.32 80.1552 184.068 79.8373 183.736 79.619C183.404 79.3912 183.005 79.2773 182.54 79.2773C181.923 79.2773 181.43 79.5288 181.06 80.0318C180.699 80.5253 180.519 81.2087 180.519 82.0819C180.519 82.9455 180.699 83.6289 181.06 84.1319C181.43 84.6349 181.933 84.8864 182.569 84.8864ZM194.351 86.0823C193.383 86.0823 192.619 85.8497 192.059 85.3847C191.499 84.9101 191.219 84.241 191.219 83.3774C191.219 82.9408 191.28 82.5564 191.404 82.2242C191.527 81.8825 191.731 81.5551 192.016 81.2419C192.31 80.9287 192.709 80.5965 193.212 80.2454C192.994 79.9606 192.808 79.6949 192.657 79.4481C192.505 79.1919 192.386 78.9356 192.301 78.6794C192.225 78.4231 192.187 78.1479 192.187 77.8537C192.187 77.1229 192.405 76.5534 192.842 76.1453C193.288 75.7277 193.895 75.5189 194.664 75.5189C195.423 75.5189 196.007 75.7135 196.415 76.1026C196.823 76.4822 197.027 77.009 197.027 77.6828C197.027 78.2238 196.866 78.7126 196.543 79.1492C196.22 79.5763 195.679 80.0413 194.92 80.5443L197.227 83.4913C197.397 83.254 197.525 82.955 197.611 82.5944C197.696 82.2337 197.739 81.8114 197.739 81.3273L198.935 81.4412C198.925 82.0107 198.83 82.5611 198.65 83.0926C198.479 83.6241 198.256 84.056 197.981 84.3881L199.191 85.8545H197.753L197.227 85.2139C196.951 85.4796 196.572 85.6931 196.088 85.8545C195.613 86.0063 195.034 86.0823 194.351 86.0823ZM194.493 84.9434C194.977 84.9434 195.381 84.8864 195.703 84.7725C196.026 84.6586 196.268 84.5163 196.429 84.3454L193.924 81.185C193.411 81.5361 193.046 81.8778 192.827 82.21C192.609 82.5422 192.5 82.9313 192.5 83.3774C192.5 83.8519 192.657 84.2315 192.97 84.5163C193.293 84.801 193.8 84.9434 194.493 84.9434ZM194.265 79.6759C194.626 79.4481 194.915 79.2393 195.134 79.0495C195.352 78.8502 195.509 78.6461 195.604 78.4373C195.698 78.2285 195.746 78.0055 195.746 77.7682C195.746 77.4266 195.651 77.1656 195.461 76.9852C195.271 76.8049 195.006 76.7147 194.664 76.7147C194.284 76.7147 193.99 76.8144 193.781 77.0137C193.573 77.213 193.468 77.493 193.468 77.8537C193.468 78.0435 193.492 78.2333 193.539 78.4231C193.587 78.6034 193.667 78.7933 193.781 78.9926C193.905 79.1919 194.066 79.4197 194.265 79.6759ZM206.831 85.8545V76.9425H203.741V75.7467H211.144V76.9425H208.055V85.8545H206.831ZM218.655 85.8545V78.3092H219.652L219.766 80.2169L219.652 80.1884C219.747 79.543 219.951 79.0685 220.264 78.7648C220.587 78.4611 221.014 78.3092 221.545 78.3092H223.097V79.3912H221.56C221.189 79.3912 220.876 79.4671 220.62 79.619C220.373 79.7613 220.183 79.9749 220.051 80.2596C219.918 80.5348 219.851 80.8813 219.851 81.2989V85.8545H218.655ZM216.691 85.8545V84.801H222.243V85.8545H216.691ZM216.691 79.3627V78.3092H219.31V79.3627H216.691ZM230.922 86.0253C230.447 86.0253 230.02 85.9399 229.64 85.7691C229.261 85.5982 228.962 85.361 228.743 85.0573C228.525 84.7441 228.416 84.3834 228.416 83.9753C228.416 83.3299 228.606 82.8316 228.985 82.4805C229.375 82.1198 229.982 81.8588 230.808 81.6975L233.342 81.185C233.342 80.5396 233.195 80.0603 232.9 79.7471C232.616 79.4339 232.203 79.2773 231.662 79.2773C231.14 79.2773 230.732 79.3959 230.438 79.6332C230.143 79.861 229.939 80.1932 229.825 80.6297L228.558 80.5301C228.701 79.8183 229.038 79.2441 229.569 78.8075C230.11 78.3614 230.808 78.1384 231.662 78.1384C232.573 78.1384 233.28 78.4136 233.783 78.9641C234.286 79.5051 234.538 80.2549 234.538 81.2134V84.3454C234.538 84.5163 234.576 84.6349 234.651 84.7013C234.727 84.7678 234.841 84.801 234.993 84.801H235.477V85.8545C235.42 85.864 235.33 85.8687 235.207 85.8687C235.083 85.8782 234.965 85.883 234.851 85.883C234.528 85.883 234.253 85.8308 234.025 85.7264C233.807 85.622 233.641 85.4559 233.527 85.2281C233.413 84.9908 233.351 84.6871 233.342 84.317H233.57C233.503 84.6397 233.342 84.9339 233.085 85.1996C232.839 85.4559 232.526 85.6599 232.146 85.8118C231.766 85.9541 231.358 86.0253 230.922 86.0253ZM231.035 84.9718C231.548 84.9718 231.975 84.8864 232.317 84.7156C232.658 84.5353 232.915 84.2885 233.085 83.9753C233.256 83.6526 233.342 83.2825 233.342 82.8649V82.21L231.035 82.6655C230.523 82.7605 230.167 82.9076 229.968 83.1069C229.768 83.2967 229.669 83.5482 229.669 83.8614C229.669 84.2126 229.787 84.4878 230.025 84.6871C230.271 84.8769 230.608 84.9718 231.035 84.9718ZM244.355 86.0253C243.653 86.0253 243.041 85.864 242.519 85.5413C241.997 85.2186 241.593 84.763 241.309 84.1746C241.024 83.5767 240.881 82.8791 240.881 82.0819C240.881 81.2846 241.024 80.5918 241.309 80.0033C241.593 79.4149 241.997 78.9593 242.519 78.6367C243.041 78.3045 243.653 78.1384 244.355 78.1384C244.915 78.1384 245.413 78.2428 245.85 78.4516C246.287 78.6509 246.647 78.9451 246.932 79.3342C247.217 79.7234 247.411 80.1979 247.516 80.7579L246.263 80.8433C246.149 80.3403 245.921 79.9559 245.579 79.6901C245.247 79.4149 244.839 79.2773 244.355 79.2773C243.662 79.2773 243.117 79.5288 242.718 80.0318C242.329 80.5253 242.134 81.2087 242.134 82.0819C242.134 82.955 242.329 83.6431 242.718 84.1461C243.117 84.6397 243.662 84.8864 244.355 84.8864C244.839 84.8864 245.257 84.7441 245.608 84.4593C245.969 84.1746 246.206 83.7475 246.32 83.1781L247.573 83.2635C247.468 83.8234 247.269 84.3122 246.975 84.7298C246.68 85.1379 246.31 85.4559 245.864 85.6837C245.418 85.9114 244.915 86.0253 244.355 86.0253ZM253.404 85.8545V75.7467H254.6V82.3666L258.273 78.3092H259.867L256.892 81.5124L260.01 85.8545H258.557L256.08 82.3239L254.6 83.8899V85.8545H253.404ZM276.968 85.8545L280.043 75.7467H281.695L284.77 85.8545H283.46L280.869 76.8571L278.278 85.8545H276.968ZM278.52 82.9787L278.947 81.7829H282.791L283.218 82.9787H278.52ZM290.117 85.8545V75.7467H292.964C294.075 75.7467 294.91 75.9934 295.47 76.487C296.039 76.9805 296.324 77.6543 296.324 78.5085C296.324 78.9261 296.224 79.301 296.025 79.6332C295.826 79.9654 295.546 80.2264 295.185 80.4162C294.825 80.606 294.407 80.7009 293.932 80.7009V80.6155C294.521 80.6155 295.024 80.7152 295.441 80.9145C295.869 81.1138 296.191 81.3938 296.409 81.7544C296.637 82.1151 296.751 82.5422 296.751 83.0357C296.751 83.9089 296.447 84.5969 295.84 85.1C295.233 85.603 294.393 85.8545 293.32 85.8545H290.117ZM291.341 84.6586H293.334C294.065 84.6586 294.601 84.5163 294.943 84.2315C295.294 83.9468 295.47 83.5482 295.47 83.0357C295.47 82.4947 295.29 82.0724 294.929 81.7687C294.568 81.4649 294.037 81.3131 293.334 81.3131H291.341V84.6586ZM291.341 80.1172H293.021C293.724 80.1172 294.236 79.9796 294.559 79.7044C294.881 79.4291 295.043 79.04 295.043 78.537C295.043 78.0245 294.881 77.6306 294.559 77.3554C294.236 77.0801 293.724 76.9425 293.021 76.9425H291.341V80.1172Z" fill="black" fill-opacity="0.8"/>
<path d="M131.027 85.8545V75.7467H133.874C134.984 75.7467 135.82 75.9934 136.38 76.487C136.949 76.9805 137.234 77.6543 137.234 78.5085C137.234 78.9261 137.134 79.301 136.935 79.6332C136.736 79.9654 136.456 80.2264 136.095 80.4162C135.734 80.606 135.317 80.7009 134.842 80.7009V80.6155C135.431 80.6155 135.934 80.7152 136.351 80.9145C136.778 81.1138 137.101 81.3938 137.319 81.7544C137.547 82.1151 137.661 82.5422 137.661 83.0357C137.661 83.9089 137.357 84.5969 136.75 85.1C136.142 85.603 135.302 85.8545 134.23 85.8545H131.027ZM132.251 84.6586H134.244C134.975 84.6586 135.511 84.5163 135.853 84.2315C136.204 83.9468 136.38 83.5482 136.38 83.0357C136.38 82.4947 136.199 82.0724 135.839 81.7687C135.478 81.4649 134.947 81.3131 134.244 81.3131H132.251V84.6586ZM132.251 80.1172H133.931C134.633 80.1172 135.146 79.9796 135.469 79.7044C135.791 79.4291 135.953 79.04 135.953 78.537C135.953 78.0245 135.791 77.6306 135.469 77.3554C135.146 77.0801 134.633 76.9425 133.931 76.9425H132.251V80.1172ZM145.727 86.0253C144.978 86.0253 144.38 85.7738 143.934 85.2708C143.488 84.7583 143.264 84.056 143.264 83.1638V78.3092H144.46V82.8364C144.46 83.5672 144.588 84.1082 144.845 84.4593C145.11 84.801 145.514 84.9718 146.055 84.9718C146.643 84.9718 147.108 84.782 147.45 84.4024C147.792 84.0133 147.962 83.4818 147.962 82.8079V78.3092H149.158V85.8545H148.019V83.9895L148.204 84.0892C148.053 84.7061 147.763 85.1854 147.336 85.5271C146.909 85.8592 146.373 86.0253 145.727 86.0253ZM158.392 85.8545V78.3092H159.588V85.8545H158.392ZM155.36 85.8545V84.801H162.193V85.8545H155.36ZM155.502 79.3627V78.3092H159.588V79.3627H155.502ZM158.278 77.1276V75.7324H159.531V77.1276H158.278ZM170.345 85.8545V77.7682C170.345 77.4645 170.26 77.2273 170.089 77.0564C169.918 76.8856 169.681 76.8002 169.377 76.8002H167.598V75.7467H169.434C170.127 75.7467 170.649 75.927 171 76.2877C171.361 76.6388 171.541 77.1608 171.541 77.8537V85.8545H170.345ZM167.313 85.8545V84.801H174.146V85.8545H167.313ZM182.497 86.0253C181.833 86.0253 181.259 85.864 180.775 85.5413C180.291 85.2186 179.916 84.763 179.65 84.1746C179.394 83.5862 179.266 82.8886 179.266 82.0819C179.266 81.2751 179.394 80.5775 179.65 79.9891C179.916 79.4007 180.291 78.9451 180.775 78.6224C181.259 78.2997 181.833 78.1384 182.497 78.1384C183.029 78.1384 183.494 78.2665 183.893 78.5228C184.291 78.7695 184.581 79.0495 184.761 79.3627V75.7467H185.957V85.8545H184.875L184.832 84.7156C184.623 85.1237 184.315 85.4464 183.907 85.6837C183.499 85.9114 183.029 86.0253 182.497 86.0253ZM182.569 84.8864C183.024 84.8864 183.413 84.7725 183.736 84.5447C184.068 84.317 184.32 83.9943 184.491 83.5767C184.671 83.1496 184.761 82.6513 184.761 82.0819C184.761 81.4934 184.671 80.9904 184.491 80.5728C184.32 80.1552 184.068 79.8373 183.736 79.619C183.404 79.3912 183.005 79.2773 182.54 79.2773C181.923 79.2773 181.43 79.5288 181.06 80.0318C180.699 80.5253 180.519 81.2087 180.519 82.0819C180.519 82.9455 180.699 83.6289 181.06 84.1319C181.43 84.6349 181.933 84.8864 182.569 84.8864ZM194.351 86.0823C193.383 86.0823 192.619 85.8497 192.059 85.3847C191.499 84.9101 191.219 84.241 191.219 83.3774C191.219 82.9408 191.28 82.5564 191.404 82.2242C191.527 81.8825 191.731 81.5551 192.016 81.2419C192.31 80.9287 192.709 80.5965 193.212 80.2454C192.994 79.9606 192.808 79.6949 192.657 79.4481C192.505 79.1919 192.386 78.9356 192.301 78.6794C192.225 78.4231 192.187 78.1479 192.187 77.8537C192.187 77.1229 192.405 76.5534 192.842 76.1453C193.288 75.7277 193.895 75.5189 194.664 75.5189C195.423 75.5189 196.007 75.7135 196.415 76.1026C196.823 76.4822 197.027 77.009 197.027 77.6828C197.027 78.2238 196.866 78.7126 196.543 79.1492C196.22 79.5763 195.679 80.0413 194.92 80.5443L197.227 83.4913C197.397 83.254 197.525 82.955 197.611 82.5944C197.696 82.2337 197.739 81.8114 197.739 81.3273L198.935 81.4412C198.925 82.0107 198.83 82.5611 198.65 83.0926C198.479 83.6241 198.256 84.056 197.981 84.3881L199.191 85.8545H197.753L197.227 85.2139C196.951 85.4796 196.572 85.6931 196.088 85.8545C195.613 86.0063 195.034 86.0823 194.351 86.0823ZM194.493 84.9434C194.977 84.9434 195.381 84.8864 195.703 84.7725C196.026 84.6586 196.268 84.5163 196.429 84.3454L193.924 81.185C193.411 81.5361 193.046 81.8778 192.827 82.21C192.609 82.5422 192.5 82.9313 192.5 83.3774C192.5 83.8519 192.657 84.2315 192.97 84.5163C193.293 84.801 193.8 84.9434 194.493 84.9434ZM194.265 79.6759C194.626 79.4481 194.915 79.2393 195.134 79.0495C195.352 78.8502 195.509 78.6461 195.604 78.4373C195.698 78.2285 195.746 78.0055 195.746 77.7682C195.746 77.4266 195.651 77.1656 195.461 76.9852C195.271 76.8049 195.006 76.7147 194.664 76.7147C194.284 76.7147 193.99 76.8144 193.781 77.0137C193.573 77.213 193.468 77.493 193.468 77.8537C193.468 78.0435 193.492 78.2333 193.539 78.4231C193.587 78.6034 193.667 78.7933 193.781 78.9926C193.905 79.1919 194.066 79.4197 194.265 79.6759ZM206.831 85.8545V76.9425H203.741V75.7467H211.144V76.9425H208.055V85.8545H206.831ZM218.655 85.8545V78.3092H219.652L219.766 80.2169L219.652 80.1884C219.747 79.543 219.951 79.0685 220.264 78.7648C220.587 78.4611 221.014 78.3092 221.545 78.3092H223.097V79.3912H221.56C221.189 79.3912 220.876 79.4671 220.62 79.619C220.373 79.7613 220.183 79.9749 220.051 80.2596C219.918 80.5348 219.851 80.8813 219.851 81.2989V85.8545H218.655ZM216.691 85.8545V84.801H222.243V85.8545H216.691ZM216.691 79.3627V78.3092H219.31V79.3627H216.691ZM230.922 86.0253C230.447 86.0253 230.02 85.9399 229.64 85.7691C229.261 85.5982 228.962 85.361 228.743 85.0573C228.525 84.7441 228.416 84.3834 228.416 83.9753C228.416 83.3299 228.606 82.8316 228.985 82.4805C229.375 82.1198 229.982 81.8588 230.808 81.6975L233.342 81.185C233.342 80.5396 233.195 80.0603 232.9 79.7471C232.616 79.4339 232.203 79.2773 231.662 79.2773C231.14 79.2773 230.732 79.3959 230.438 79.6332C230.143 79.861 229.939 80.1932 229.825 80.6297L228.558 80.5301C228.701 79.8183 229.038 79.2441 229.569 78.8075C230.11 78.3614 230.808 78.1384 231.662 78.1384C232.573 78.1384 233.28 78.4136 233.783 78.9641C234.286 79.5051 234.538 80.2549 234.538 81.2134V84.3454C234.538 84.5163 234.576 84.6349 234.651 84.7013C234.727 84.7678 234.841 84.801 234.993 84.801H235.477V85.8545C235.42 85.864 235.33 85.8687 235.207 85.8687C235.083 85.8782 234.965 85.883 234.851 85.883C234.528 85.883 234.253 85.8308 234.025 85.7264C233.807 85.622 233.641 85.4559 233.527 85.2281C233.413 84.9908 233.351 84.6871 233.342 84.317H233.57C233.503 84.6397 233.342 84.9339 233.085 85.1996C232.839 85.4559 232.526 85.6599 232.146 85.8118C231.766 85.9541 231.358 86.0253 230.922 86.0253ZM231.035 84.9718C231.548 84.9718 231.975 84.8864 232.317 84.7156C232.658 84.5353 232.915 84.2885 233.085 83.9753C233.256 83.6526 233.342 83.2825 233.342 82.8649V82.21L231.035 82.6655C230.523 82.7605 230.167 82.9076 229.968 83.1069C229.768 83.2967 229.669 83.5482 229.669 83.8614C229.669 84.2126 229.787 84.4878 230.025 84.6871C230.271 84.8769 230.608 84.9718 231.035 84.9718ZM244.355 86.0253C243.653 86.0253 243.041 85.864 242.519 85.5413C241.997 85.2186 241.593 84.763 241.309 84.1746C241.024 83.5767 240.881 82.8791 240.881 82.0819C240.881 81.2846 241.024 80.5918 241.309 80.0033C241.593 79.4149 241.997 78.9593 242.519 78.6367C243.041 78.3045 243.653 78.1384 244.355 78.1384C244.915 78.1384 245.413 78.2428 245.85 78.4516C246.287 78.6509 246.647 78.9451 246.932 79.3342C247.217 79.7234 247.411 80.1979 247.516 80.7579L246.263 80.8433C246.149 80.3403 245.921 79.9559 245.579 79.6901C245.247 79.4149 244.839 79.2773 244.355 79.2773C243.662 79.2773 243.117 79.5288 242.718 80.0318C242.329 80.5253 242.134 81.2087 242.134 82.0819C242.134 82.955 242.329 83.6431 242.718 84.1461C243.117 84.6397 243.662 84.8864 244.355 84.8864C244.839 84.8864 245.257 84.7441 245.608 84.4593C245.969 84.1746 246.206 83.7475 246.32 83.1781L247.573 83.2635C247.468 83.8234 247.269 84.3122 246.975 84.7298C246.68 85.1379 246.31 85.4559 245.864 85.6837C245.418 85.9114 244.915 86.0253 244.355 86.0253ZM253.404 85.8545V75.7467H254.6V82.3666L258.273 78.3092H259.867L256.892 81.5124L260.01 85.8545H258.557L256.08 82.3239L254.6 83.8899V85.8545H253.404ZM276.968 85.8545L280.043 75.7467H281.695L284.77 85.8545H283.46L280.869 76.8571L278.278 85.8545H276.968ZM278.52 82.9787L278.947 81.7829H282.791L283.218 82.9787H278.52ZM290.117 85.8545V75.7467H292.964C294.075 75.7467 294.91 75.9934 295.47 76.487C296.039 76.9805 296.324 77.6543 296.324 78.5085C296.324 78.9261 296.224 79.301 296.025 79.6332C295.826 79.9654 295.546 80.2264 295.185 80.4162C294.825 80.606 294.407 80.7009 293.932 80.7009V80.6155C294.521 80.6155 295.024 80.7152 295.441 80.9145C295.869 81.1138 296.191 81.3938 296.409 81.7544C296.637 82.1151 296.751 82.5422 296.751 83.0357C296.751 83.9089 296.447 84.5969 295.84 85.1C295.233 85.603 294.393 85.8545 293.32 85.8545H290.117ZM291.341 84.6586H293.334C294.065 84.6586 294.601 84.5163 294.943 84.2315C295.294 83.9468 295.47 83.5482 295.47 83.0357C295.47 82.4947 295.29 82.0724 294.929 81.7687C294.568 81.4649 294.037 81.3131 293.334 81.3131H291.341V84.6586ZM291.341 80.1172H293.021C293.724 80.1172 294.236 79.9796 294.559 79.7044C294.881 79.4291 295.043 79.04 295.043 78.537C295.043 78.0245 294.881 77.6306 294.559 77.3554C294.236 77.0801 293.724 76.9425 293.021 76.9425H291.341V80.1172Z" fill="#D8D0B3" fill-opacity="0.2"/>
<path d="M131.027 85.8545V75.7467H133.874C134.984 75.7467 135.82 75.9934 136.38 76.487C136.949 76.9805 137.234 77.6543 137.234 78.5085C137.234 78.9261 137.134 79.301 136.935 79.6332C136.736 79.9654 136.456 80.2264 136.095 80.4162C135.734 80.606 135.317 80.7009 134.842 80.7009V80.6155C135.431 80.6155 135.934 80.7152 136.351 80.9145C136.778 81.1138 137.101 81.3938 137.319 81.7544C137.547 82.1151 137.661 82.5422 137.661 83.0357C137.661 83.9089 137.357 84.5969 136.75 85.1C136.142 85.603 135.302 85.8545 134.23 85.8545H131.027ZM132.251 84.6586H134.244C134.975 84.6586 135.511 84.5163 135.853 84.2315C136.204 83.9468 136.38 83.5482 136.38 83.0357C136.38 82.4947 136.199 82.0724 135.839 81.7687C135.478 81.4649 134.947 81.3131 134.244 81.3131H132.251V84.6586ZM132.251 80.1172H133.931C134.633 80.1172 135.146 79.9796 135.469 79.7044C135.791 79.4291 135.953 79.04 135.953 78.537C135.953 78.0245 135.791 77.6306 135.469 77.3554C135.146 77.0801 134.633 76.9425 133.931 76.9425H132.251V80.1172ZM145.727 86.0253C144.978 86.0253 144.38 85.7738 143.934 85.2708C143.488 84.7583 143.264 84.056 143.264 83.1638V78.3092H144.46V82.8364C144.46 83.5672 144.588 84.1082 144.845 84.4593C145.11 84.801 145.514 84.9718 146.055 84.9718C146.643 84.9718 147.108 84.782 147.45 84.4024C147.792 84.0133 147.962 83.4818 147.962 82.8079V78.3092H149.158V85.8545H148.019V83.9895L148.204 84.0892C148.053 84.7061 147.763 85.1854 147.336 85.5271C146.909 85.8592 146.373 86.0253 145.727 86.0253ZM158.392 85.8545V78.3092H159.588V85.8545H158.392ZM155.36 85.8545V84.801H162.193V85.8545H155.36ZM155.502 79.3627V78.3092H159.588V79.3627H155.502ZM158.278 77.1276V75.7324H159.531V77.1276H158.278ZM170.345 85.8545V77.7682C170.345 77.4645 170.26 77.2273 170.089 77.0564C169.918 76.8856 169.681 76.8002 169.377 76.8002H167.598V75.7467H169.434C170.127 75.7467 170.649 75.927 171 76.2877C171.361 76.6388 171.541 77.1608 171.541 77.8537V85.8545H170.345ZM167.313 85.8545V84.801H174.146V85.8545H167.313ZM182.497 86.0253C181.833 86.0253 181.259 85.864 180.775 85.5413C180.291 85.2186 179.916 84.763 179.65 84.1746C179.394 83.5862 179.266 82.8886 179.266 82.0819C179.266 81.2751 179.394 80.5775 179.65 79.9891C179.916 79.4007 180.291 78.9451 180.775 78.6224C181.259 78.2997 181.833 78.1384 182.497 78.1384C183.029 78.1384 183.494 78.2665 183.893 78.5228C184.291 78.7695 184.581 79.0495 184.761 79.3627V75.7467H185.957V85.8545H184.875L184.832 84.7156C184.623 85.1237 184.315 85.4464 183.907 85.6837C183.499 85.9114 183.029 86.0253 182.497 86.0253ZM182.569 84.8864C183.024 84.8864 183.413 84.7725 183.736 84.5447C184.068 84.317 184.32 83.9943 184.491 83.5767C184.671 83.1496 184.761 82.6513 184.761 82.0819C184.761 81.4934 184.671 80.9904 184.491 80.5728C184.32 80.1552 184.068 79.8373 183.736 79.619C183.404 79.3912 183.005 79.2773 182.54 79.2773C181.923 79.2773 181.43 79.5288 181.06 80.0318C180.699 80.5253 180.519 81.2087 180.519 82.0819C180.519 82.9455 180.699 83.6289 181.06 84.1319C181.43 84.6349 181.933 84.8864 182.569 84.8864ZM194.351 86.0823C193.383 86.0823 192.619 85.8497 192.059 85.3847C191.499 84.9101 191.219 84.241 191.219 83.3774C191.219 82.9408 191.28 82.5564 191.404 82.2242C191.527 81.8825 191.731 81.5551 192.016 81.2419C192.31 80.9287 192.709 80.5965 193.212 80.2454C192.994 79.9606 192.808 79.6949 192.657 79.4481C192.505 79.1919 192.386 78.9356 192.301 78.6794C192.225 78.4231 192.187 78.1479 192.187 77.8537C192.187 77.1229 192.405 76.5534 192.842 76.1453C193.288 75.7277 193.895 75.5189 194.664 75.5189C195.423 75.5189 196.007 75.7135 196.415 76.1026C196.823 76.4822 197.027 77.009 197.027 77.6828C197.027 78.2238 196.866 78.7126 196.543 79.1492C196.22 79.5763 195.679 80.0413 194.92 80.5443L197.227 83.4913C197.397 83.254 197.525 82.955 197.611 82.5944C197.696 82.2337 197.739 81.8114 197.739 81.3273L198.935 81.4412C198.925 82.0107 198.83 82.5611 198.65 83.0926C198.479 83.6241 198.256 84.056 197.981 84.3881L199.191 85.8545H197.753L197.227 85.2139C196.951 85.4796 196.572 85.6931 196.088 85.8545C195.613 86.0063 195.034 86.0823 194.351 86.0823ZM194.493 84.9434C194.977 84.9434 195.381 84.8864 195.703 84.7725C196.026 84.6586 196.268 84.5163 196.429 84.3454L193.924 81.185C193.411 81.5361 193.046 81.8778 192.827 82.21C192.609 82.5422 192.5 82.9313 192.5 83.3774C192.5 83.8519 192.657 84.2315 192.97 84.5163C193.293 84.801 193.8 84.9434 194.493 84.9434ZM194.265 79.6759C194.626 79.4481 194.915 79.2393 195.134 79.0495C195.352 78.8502 195.509 78.6461 195.604 78.4373C195.698 78.2285 195.746 78.0055 195.746 77.7682C195.746 77.4266 195.651 77.1656 195.461 76.9852C195.271 76.8049 195.006 76.7147 194.664 76.7147C194.284 76.7147 193.99 76.8144 193.781 77.0137C193.573 77.213 193.468 77.493 193.468 77.8537C193.468 78.0435 193.492 78.2333 193.539 78.4231C193.587 78.6034 193.667 78.7933 193.781 78.9926C193.905 79.1919 194.066 79.4197 194.265 79.6759ZM206.831 85.8545V76.9425H203.741V75.7467H211.144V76.9425H208.055V85.8545H206.831ZM218.655 85.8545V78.3092H219.652L219.766 80.2169L219.652 80.1884C219.747 79.543 219.951 79.0685 220.264 78.7648C220.587 78.4611 221.014 78.3092 221.545 78.3092H223.097V79.3912H221.56C221.189 79.3912 220.876 79.4671 220.62 79.619C220.373 79.7613 220.183 79.9749 220.051 80.2596C219.918 80.5348 219.851 80.8813 219.851 81.2989V85.8545H218.655ZM216.691 85.8545V84.801H222.243V85.8545H216.691ZM216.691 79.3627V78.3092H219.31V79.3627H216.691ZM230.922 86.0253C230.447 86.0253 230.02 85.9399 229.64 85.7691C229.261 85.5982 228.962 85.361 228.743 85.0573C228.525 84.7441 228.416 84.3834 228.416 83.9753C228.416 83.3299 228.606 82.8316 228.985 82.4805C229.375 82.1198 229.982 81.8588 230.808 81.6975L233.342 81.185C233.342 80.5396 233.195 80.0603 232.9 79.7471C232.616 79.4339 232.203 79.2773 231.662 79.2773C231.14 79.2773 230.732 79.3959 230.438 79.6332C230.143 79.861 229.939 80.1932 229.825 80.6297L228.558 80.5301C228.701 79.8183 229.038 79.2441 229.569 78.8075C230.11 78.3614 230.808 78.1384 231.662 78.1384C232.573 78.1384 233.28 78.4136 233.783 78.9641C234.286 79.5051 234.538 80.2549 234.538 81.2134V84.3454C234.538 84.5163 234.576 84.6349 234.651 84.7013C234.727 84.7678 234.841 84.801 234.993 84.801H235.477V85.8545C235.42 85.864 235.33 85.8687 235.207 85.8687C235.083 85.8782 234.965 85.883 234.851 85.883C234.528 85.883 234.253 85.8308 234.025 85.7264C233.807 85.622 233.641 85.4559 233.527 85.2281C233.413 84.9908 233.351 84.6871 233.342 84.317H233.57C233.503 84.6397 233.342 84.9339 233.085 85.1996C232.839 85.4559 232.526 85.6599 232.146 85.8118C231.766 85.9541 231.358 86.0253 230.922 86.0253ZM231.035 84.9718C231.548 84.9718 231.975 84.8864 232.317 84.7156C232.658 84.5353 232.915 84.2885 233.085 83.9753C233.256 83.6526 233.342 83.2825 233.342 82.8649V82.21L231.035 82.6655C230.523 82.7605 230.167 82.9076 229.968 83.1069C229.768 83.2967 229.669 83.5482 229.669 83.8614C229.669 84.2126 229.787 84.4878 230.025 84.6871C230.271 84.8769 230.608 84.9718 231.035 84.9718ZM244.355 86.0253C243.653 86.0253 243.041 85.864 242.519 85.5413C241.997 85.2186 241.593 84.763 241.309 84.1746C241.024 83.5767 240.881 82.8791 240.881 82.0819C240.881 81.2846 241.024 80.5918 241.309 80.0033C241.593 79.4149 241.997 78.9593 242.519 78.6367C243.041 78.3045 243.653 78.1384 244.355 78.1384C244.915 78.1384 245.413 78.2428 245.85 78.4516C246.287 78.6509 246.647 78.9451 246.932 79.3342C247.217 79.7234 247.411 80.1979 247.516 80.7579L246.263 80.8433C246.149 80.3403 245.921 79.9559 245.579 79.6901C245.247 79.4149 244.839 79.2773 244.355 79.2773C243.662 79.2773 243.117 79.5288 242.718 80.0318C242.329 80.5253 242.134 81.2087 242.134 82.0819C242.134 82.955 242.329 83.6431 242.718 84.1461C243.117 84.6397 243.662 84.8864 244.355 84.8864C244.839 84.8864 245.257 84.7441 245.608 84.4593C245.969 84.1746 246.206 83.7475 246.32 83.1781L247.573 83.2635C247.468 83.8234 247.269 84.3122 246.975 84.7298C246.68 85.1379 246.31 85.4559 245.864 85.6837C245.418 85.9114 244.915 86.0253 244.355 86.0253ZM253.404 85.8545V75.7467H254.6V82.3666L258.273 78.3092H259.867L256.892 81.5124L260.01 85.8545H258.557L256.08 82.3239L254.6 83.8899V85.8545H253.404ZM276.968 85.8545L280.043 75.7467H281.695L284.77 85.8545H283.46L280.869 76.8571L278.278 85.8545H276.968ZM278.52 82.9787L278.947 81.7829H282.791L283.218 82.9787H278.52ZM290.117 85.8545V75.7467H292.964C294.075 75.7467 294.91 75.9934 295.47 76.487C296.039 76.9805 296.324 77.6543 296.324 78.5085C296.324 78.9261 296.224 79.301 296.025 79.6332C295.826 79.9654 295.546 80.2264 295.185 80.4162C294.825 80.606 294.407 80.7009 293.932 80.7009V80.6155C294.521 80.6155 295.024 80.7152 295.441 80.9145C295.869 81.1138 296.191 81.3938 296.409 81.7544C296.637 82.1151 296.751 82.5422 296.751 83.0357C296.751 83.9089 296.447 84.5969 295.84 85.1C295.233 85.603 294.393 85.8545 293.32 85.8545H290.117ZM291.341 84.6586H293.334C294.065 84.6586 294.601 84.5163 294.943 84.2315C295.294 83.9468 295.47 83.5482 295.47 83.0357C295.47 82.4947 295.29 82.0724 294.929 81.7687C294.568 81.4649 294.037 81.3131 293.334 81.3131H291.341V84.6586ZM291.341 80.1172H293.021C293.724 80.1172 294.236 79.9796 294.559 79.7044C294.881 79.4291 295.043 79.04 295.043 78.537C295.043 78.0245 294.881 77.6306 294.559 77.3554C294.236 77.0801 293.724 76.9425 293.021 76.9425H291.341V80.1172Z" fill="#403F39"/>
</svg>
