<svg width="186" height="51" viewBox="0 0 186 51" fill="none" xmlns="http://www.w3.org/2000/svg">
<path d="M51 51H0V31.8L19.125 44.6L51 19V51Z" fill="#A49251"/>
<path d="M51 6.4L19.125 32L0 19.2V0H51V6.4Z" fill="#5498D9"/>
<path d="M76 31.6169V3.4597H83.1888C85.4951 3.4597 87.3154 3.68959 88.6476 4.14929C90.0061 4.60899 91.0057 5.19642 91.6466 5.9115C92.313 6.62658 92.7486 7.38002 92.9539 8.17171C93.1585 8.96346 93.2609 9.7041 93.2609 10.3937C93.2609 11.1343 93.1457 11.9133 92.9155 12.7305C92.7102 13.5223 92.3514 14.2629 91.8385 14.9524C91.3262 15.6164 90.6213 16.1528 89.724 16.5614C91.6466 17.0467 93.005 17.8895 93.7994 19.0898C94.6193 20.2647 95.0299 21.5799 95.0299 23.0357C95.0299 24.0317 94.9142 25.0405 94.6839 26.0621C94.453 27.0837 93.9657 28.0158 93.2225 28.8586C92.5049 29.6759 91.4157 30.34 89.9549 30.8507C88.4941 31.3615 86.5332 31.6169 84.0727 31.6169H76ZM80.2289 15.4122H83.8809C85.2137 15.4122 86.239 15.195 86.9566 14.7609C87.6742 14.3012 88.1737 13.7138 88.4557 12.9987C88.7634 12.2835 88.9169 11.5302 88.9169 10.7384C88.9169 10.0744 88.7634 9.47421 88.4557 8.9379C88.1737 8.37604 87.6486 7.92908 86.8792 7.5971C86.136 7.26511 85.0724 7.09909 83.6883 7.09909H80.2289V15.4122ZM80.2289 28.0158H84.6496C85.9569 28.0158 86.9949 27.8626 87.7637 27.5561C88.5581 27.2497 89.1606 26.8538 89.5705 26.3686C89.9805 25.8833 90.2498 25.3598 90.3777 24.7979C90.5062 24.2105 90.5702 23.6359 90.5702 23.074C90.5702 21.7459 90.1218 20.7115 89.2245 19.9709C88.3272 19.2048 86.9176 18.8217 84.9956 18.8217H80.2289V28.0158ZM112.984 32C111.062 32 109.242 31.668 107.525 31.004C105.834 30.34 104.334 29.3822 103.027 28.1308C101.72 26.8538 100.682 25.3215 99.9131 23.5337C99.1699 21.7459 98.7983 19.7283 98.7983 17.4808C98.7983 15.2079 99.1699 13.1775 99.9131 11.3897C100.682 9.60193 101.72 8.08236 103.027 6.8309C104.359 5.57951 105.872 4.63455 107.563 3.99601C109.28 3.33205 111.087 3 112.984 3C114.88 3 116.674 3.33205 118.366 3.99601C120.083 4.63455 121.595 5.57951 122.903 6.8309C124.236 8.08236 125.274 9.60193 126.017 11.3897C126.786 13.1775 127.17 15.2079 127.17 17.4808C127.17 19.7283 126.786 21.7459 126.017 23.5337C125.274 25.3215 124.248 26.8538 122.941 28.1308C121.634 29.3822 120.122 30.34 118.405 31.004C116.713 31.668 114.906 32 112.984 32ZM112.984 28.1308C114.727 28.1308 116.328 27.7221 117.79 26.9049C119.251 26.0877 120.417 24.9001 121.288 23.3421C122.159 21.7587 122.595 19.8177 122.595 17.5192C122.595 15.195 122.159 13.2541 121.288 11.6962C120.417 10.1128 119.251 8.92516 117.79 8.13341C116.354 7.31616 114.753 6.90751 112.984 6.90751C111.216 6.90751 109.601 7.31616 108.14 8.13341C106.705 8.92516 105.552 10.1128 104.68 11.6962C103.809 13.2541 103.373 15.195 103.373 17.5192C103.373 19.8177 103.822 21.7587 104.718 23.3421C105.616 24.9001 106.794 26.0877 108.255 26.9049C109.717 27.7221 111.292 28.1308 112.984 28.1308ZM131.827 31.6169V3.4597H138.631C141.168 3.4597 143.321 3.74064 145.09 4.3025C146.884 4.86437 148.358 5.61782 149.511 6.56278C150.664 7.48219 151.561 8.54206 152.202 9.7424C152.869 10.9172 153.33 12.1431 153.586 13.4201C153.842 14.6715 153.971 15.8846 153.971 17.0594C153.971 18.8217 153.714 20.5711 153.201 22.3078C152.715 24.019 151.895 25.5768 150.741 26.9815C149.588 28.3862 148.037 29.5099 146.089 30.3527C144.167 31.1955 141.758 31.6169 138.862 31.6169H131.827ZM136.132 27.8243H139.323C141.219 27.8243 142.809 27.5306 144.091 26.9432C145.397 26.3558 146.435 25.5641 147.204 24.568C147.999 23.5464 148.562 22.41 148.896 21.1585C149.254 19.8816 149.434 18.5791 149.434 17.251C149.434 15.4377 149.114 13.7776 148.473 12.2708C147.832 10.7384 146.768 9.51258 145.282 8.59311C143.821 7.6737 141.835 7.214 139.323 7.214H136.132V27.8243ZM171.814 32C169.892 32 168.073 31.668 166.355 31.004C164.664 30.34 163.165 29.3822 161.857 28.1308C160.55 26.8538 159.512 25.3215 158.743 23.5337C158 21.7459 157.628 19.7283 157.628 17.4808C157.628 15.2079 158 13.1775 158.743 11.3897C159.512 9.60193 160.55 8.08236 161.857 6.8309C163.19 5.57951 164.702 4.63455 166.394 3.99601C168.111 3.33205 169.918 3 171.814 3C173.711 3 175.505 3.33205 177.196 3.99601C178.913 4.63455 180.426 5.57951 181.733 6.8309C183.066 8.08236 184.104 9.60193 184.847 11.3897C185.616 13.1775 186 15.2079 186 17.4808C186 19.7283 185.616 21.7459 184.847 23.5337C184.104 25.3215 183.078 26.8538 181.771 28.1308C180.464 29.3822 178.952 30.34 177.235 31.004C175.544 31.668 173.737 32 171.814 32ZM171.814 28.1308C173.557 28.1308 175.159 27.7221 176.62 26.9049C178.081 26.0877 179.247 24.9001 180.118 23.3421C180.99 21.7587 181.425 19.8177 181.425 17.5192C181.425 15.195 180.99 13.2541 180.118 11.6962C179.247 10.1128 178.081 8.92516 176.62 8.13341C175.185 7.31616 173.583 6.90751 171.814 6.90751C170.046 6.90751 168.431 7.31616 166.97 8.13341C165.535 8.92516 164.382 10.1128 163.511 11.6962C162.639 13.2541 162.203 15.195 162.203 17.5192C162.203 19.8177 162.652 21.7587 163.549 23.3421C164.446 24.9001 165.625 26.0877 167.086 26.9049C168.547 27.7221 170.123 28.1308 171.814 28.1308Z" fill="black"/>
<path d="M77 48.849V42.151H78.821C79.531 42.151 80.0657 42.3144 80.4239 42.6415C80.7878 42.9686 80.9701 43.4151 80.9701 43.9811C80.9701 44.2578 80.9061 44.5063 80.7789 44.7264C80.6516 44.9465 80.4725 45.1195 80.2416 45.2453C80.0107 45.371 79.744 45.4339 79.4401 45.4339V45.3773C79.8169 45.3773 80.1386 45.4434 80.4053 45.5755C80.6784 45.7075 80.885 45.8931 81.0245 46.1321C81.1703 46.3711 81.2432 46.6541 81.2432 46.9811C81.2432 47.5598 81.0488 48.0157 80.6605 48.3491C80.2716 48.6824 79.7344 48.849 79.0487 48.849H77ZM77.7829 48.0566H79.0577C79.5252 48.0566 79.868 47.9623 80.0868 47.7735C80.3113 47.5849 80.4239 47.3207 80.4239 46.9811C80.4239 46.6226 80.3081 46.3428 80.0778 46.1415C79.8469 45.9402 79.5073 45.8396 79.0577 45.8396H77.7829V48.0566ZM77.7829 45.0471H78.8575C79.3065 45.0471 79.6346 44.956 79.8412 44.7736C80.0471 44.5912 80.1508 44.3333 80.1508 44C80.1508 43.6604 80.0471 43.3994 79.8412 43.217C79.6346 43.0346 79.3065 42.9434 78.8575 42.9434H77.7829V45.0471ZM86.4024 48.9622C85.9233 48.9622 85.5408 48.7956 85.2556 48.4622C84.9703 48.1226 84.827 47.6572 84.827 47.066V43.849H85.592V46.8491C85.592 47.3333 85.6739 47.6918 85.8382 47.9245C86.0077 48.1509 86.2661 48.2641 86.6122 48.2641C86.9883 48.2641 87.2857 48.1383 87.5044 47.8868C87.7232 47.6289 87.8319 47.2767 87.8319 46.8302V43.849H88.5969V48.849H87.8684V47.6132L87.9867 47.6792C87.8901 48.088 87.7046 48.4057 87.4315 48.6321C87.1584 48.8522 86.8156 48.9622 86.4024 48.9622ZM94.5031 48.849V43.849H95.2681V48.849H94.5031ZM92.5638 48.849V48.1509H96.9343V48.849H92.5638ZM92.6546 44.5472V43.849H95.2681V44.5472H92.6546ZM94.4302 43.066V42.1415H95.2317V43.066H94.4302ZM102.148 48.849V43.4905C102.148 43.2893 102.094 43.1321 101.985 43.0188C101.875 42.9057 101.724 42.8491 101.529 42.8491H100.391V42.151H101.566C102.009 42.151 102.343 42.2704 102.567 42.5095C102.798 42.7421 102.913 43.088 102.913 43.5472V48.849H102.148ZM100.209 48.849V48.1509H104.58V48.849H100.209ZM109.921 48.9622C109.496 48.9622 109.129 48.8553 108.82 48.6415C108.51 48.4277 108.27 48.1257 108.1 47.7358C107.936 47.3459 107.855 46.8836 107.855 46.3491C107.855 45.8144 107.936 45.3522 108.1 44.9622C108.27 44.5723 108.51 44.2704 108.82 44.0566C109.129 43.8427 109.496 43.7359 109.921 43.7359C110.261 43.7359 110.559 43.8207 110.814 43.9906C111.069 44.1541 111.254 44.3396 111.369 44.5472V42.151H112.134V48.849H111.442L111.415 48.0943C111.281 48.3648 111.084 48.5786 110.823 48.7359C110.562 48.8868 110.261 48.9622 109.921 48.9622ZM109.967 48.2075C110.258 48.2075 110.507 48.132 110.714 47.9811C110.926 47.8302 111.087 47.6164 111.197 47.3396C111.312 47.0566 111.369 46.7264 111.369 46.3491C111.369 45.9591 111.312 45.6258 111.197 45.349C111.087 45.0723 110.926 44.8617 110.714 44.717C110.501 44.566 110.246 44.4906 109.949 44.4906C109.554 44.4906 109.239 44.6572 109.002 44.9905C108.771 45.3176 108.656 45.7704 108.656 46.3491C108.656 46.9214 108.771 47.3742 109.002 47.7075C109.239 48.0409 109.56 48.2075 109.967 48.2075ZM117.503 49C116.884 49 116.395 48.8459 116.037 48.5377C115.679 48.2232 115.5 47.7798 115.5 47.2076C115.5 46.9182 115.539 46.6635 115.618 46.4434C115.697 46.2169 115.827 46 116.01 45.7924C116.198 45.5849 116.453 45.3648 116.775 45.1321C116.635 44.9434 116.516 44.7673 116.42 44.6037C116.322 44.434 116.246 44.2641 116.192 44.0944C116.143 43.9245 116.119 43.7421 116.119 43.5472C116.119 43.0629 116.258 42.6855 116.538 42.4151C116.823 42.1384 117.211 42 117.703 42C118.189 42 118.562 42.129 118.823 42.3868C119.084 42.6383 119.215 42.9874 119.215 43.4339C119.215 43.7924 119.112 44.1164 118.905 44.4057C118.699 44.6887 118.353 44.9968 117.867 45.3302L119.343 47.283C119.451 47.1258 119.533 46.9276 119.588 46.6887C119.643 46.4497 119.67 46.1698 119.67 45.849L120.435 45.9245C120.429 46.3019 120.368 46.6666 120.253 47.0188C120.143 47.371 120.001 47.6572 119.825 47.8773L120.599 48.849H119.679L119.343 48.4245C119.166 48.6006 118.924 48.7421 118.614 48.849C118.31 48.9496 117.94 49 117.503 49ZM117.594 48.2453C117.904 48.2453 118.162 48.2075 118.368 48.132C118.575 48.0566 118.729 47.9623 118.832 47.849L117.23 45.7547C116.902 45.9874 116.668 46.2138 116.528 46.434C116.389 46.6541 116.319 46.9119 116.319 47.2076C116.319 47.522 116.42 47.7735 116.62 47.9623C116.826 48.1509 117.151 48.2453 117.594 48.2453ZM117.448 44.7547C117.679 44.6037 117.864 44.4654 118.004 44.3396C118.143 44.2075 118.244 44.0723 118.305 43.9339C118.365 43.7956 118.395 43.6478 118.395 43.4905C118.395 43.2642 118.335 43.0912 118.213 42.9717C118.092 42.8522 117.922 42.7924 117.703 42.7924C117.46 42.7924 117.272 42.8585 117.139 42.9906C117.006 43.1226 116.938 43.3082 116.938 43.5472C116.938 43.673 116.954 43.7987 116.984 43.9245C117.014 44.044 117.066 44.1698 117.139 44.3019C117.218 44.434 117.321 44.5849 117.448 44.7547ZM125.486 48.849V42.9434H123.509V42.151H128.244V42.9434H126.268V48.849H125.486ZM133.048 48.849V43.849H133.686L133.759 45.1132L133.686 45.0943C133.747 44.6666 133.877 44.3522 134.078 44.1509C134.284 43.9497 134.557 43.849 134.897 43.849H135.89V44.566H134.907C134.669 44.566 134.469 44.6163 134.305 44.717C134.147 44.8113 134.026 44.9528 133.941 45.1415C133.856 45.3239 133.813 45.5535 133.813 45.8302V48.849H133.048ZM131.792 48.849V48.1509H135.343V48.849H131.792ZM131.792 44.5472V43.849H133.467V44.5472H131.792ZM140.895 48.9622C140.591 48.9622 140.318 48.9056 140.075 48.7925C139.832 48.6792 139.641 48.522 139.501 48.3208C139.361 48.1132 139.292 47.8742 139.292 47.6038C139.292 47.1761 139.413 46.8459 139.656 46.6132C139.905 46.3742 140.293 46.2012 140.822 46.0943L142.442 45.7547C142.442 45.327 142.348 45.0094 142.16 44.8019C141.978 44.5943 141.714 44.4906 141.368 44.4906C141.034 44.4906 140.773 44.5692 140.585 44.7264C140.396 44.8774 140.266 45.0975 140.193 45.3868L139.383 45.3207C139.474 44.8491 139.69 44.4686 140.029 44.1792C140.375 43.8836 140.822 43.7359 141.368 43.7359C141.951 43.7359 142.403 43.9182 142.725 44.283C143.046 44.6415 143.207 45.1384 143.207 45.7736V47.849C143.207 47.9623 143.232 48.0409 143.28 48.0849C143.328 48.1289 143.401 48.1509 143.498 48.1509H143.808V48.849C143.772 48.8553 143.714 48.8585 143.635 48.8585C143.556 48.8648 143.481 48.8679 143.408 48.8679C143.201 48.8679 143.025 48.8333 142.879 48.7642C142.74 48.695 142.634 48.5849 142.561 48.434C142.488 48.2767 142.448 48.0755 142.442 47.8302H142.588C142.545 48.044 142.442 48.239 142.278 48.4151C142.121 48.5849 141.921 48.7201 141.677 48.8207C141.434 48.915 141.173 48.9622 140.895 48.9622ZM140.967 48.2641C141.295 48.2641 141.568 48.2075 141.787 48.0943C142.005 47.9749 142.169 47.8113 142.278 47.6038C142.387 47.3899 142.442 47.1447 142.442 46.8679V46.434L140.967 46.7358C140.639 46.7988 140.412 46.8962 140.284 47.0283C140.156 47.1541 140.093 47.3207 140.093 47.5283C140.093 47.761 140.169 47.9434 140.321 48.0755C140.478 48.2012 140.694 48.2641 140.967 48.2641ZM149.487 48.9622C149.038 48.9622 148.646 48.8553 148.312 48.6415C147.978 48.4277 147.72 48.1257 147.538 47.7358C147.356 47.3396 147.265 46.8774 147.265 46.3491C147.265 45.8207 147.356 45.3616 147.538 44.9717C147.72 44.5817 147.978 44.2798 148.312 44.0661C148.646 43.8459 149.038 43.7359 149.487 43.7359C149.845 43.7359 150.163 43.805 150.443 43.9434C150.722 44.0755 150.953 44.2704 151.135 44.5283C151.317 44.7862 151.441 45.1006 151.508 45.4717L150.707 45.5283C150.634 45.195 150.488 44.9402 150.269 44.7641C150.057 44.5817 149.796 44.4906 149.487 44.4906C149.043 44.4906 148.695 44.6572 148.44 44.9905C148.191 45.3176 148.066 45.7704 148.066 46.3491C148.066 46.9276 148.191 47.3836 148.44 47.717C148.695 48.044 149.043 48.2075 149.487 48.2075C149.796 48.2075 150.064 48.1132 150.288 47.9245C150.519 47.7358 150.671 47.4528 150.743 47.0755L151.545 47.1321C151.478 47.5031 151.35 47.827 151.162 48.1037C150.974 48.3742 150.737 48.5849 150.452 48.7359C150.167 48.8868 149.845 48.9622 149.487 48.9622ZM155.274 48.849V42.151H156.039V46.5377L158.389 43.849H159.408L157.505 45.9717L159.5 48.849H158.57L156.986 46.5094L156.039 47.5472V48.849H155.274ZM170.346 48.849L172.313 42.151H173.37L175.337 48.849H174.499L172.842 42.8868L171.184 48.849H170.346ZM171.339 46.9434L171.612 46.1509H174.071L174.344 46.9434H171.339ZM178.757 48.849V42.151H180.578C181.288 42.151 181.822 42.3144 182.181 42.6415C182.545 42.9686 182.727 43.4151 182.727 43.9811C182.727 44.2578 182.663 44.5063 182.536 44.7264C182.408 44.9465 182.229 45.1195 181.998 45.2453C181.768 45.371 181.501 45.4339 181.197 45.4339V45.3773C181.574 45.3773 181.895 45.4434 182.162 45.5755C182.436 45.7075 182.642 45.8931 182.781 46.1321C182.927 46.3711 183 46.6541 183 46.9811C183 47.5598 182.806 48.0157 182.417 48.3491C182.029 48.6824 181.492 48.849 180.805 48.849H178.757ZM179.54 48.0566H180.814C181.282 48.0566 181.625 47.9623 181.844 47.7735C182.068 47.5849 182.181 47.3207 182.181 46.9811C182.181 46.6226 182.066 46.3428 181.835 46.1415C181.604 45.9402 181.264 45.8396 180.814 45.8396H179.54V48.0566ZM179.54 45.0471H180.614C181.064 45.0471 181.391 44.956 181.598 44.7736C181.804 44.5912 181.908 44.3333 181.908 44C181.908 43.6604 181.804 43.3994 181.598 43.217C181.391 43.0346 181.064 42.9434 180.614 42.9434H179.54V45.0471Z" fill="#1E1C74"/>
</svg>
