<svg width="240" height="240" viewBox="0 0 240 240" fill="none" xmlns="http://www.w3.org/2000/svg">
<path d="M170 120H70V82.5L107.5 107.5L170 57.5V120Z" fill="#BEB07E"/>
<path d="M170 32.5L107.5 82.5L70 57.5V20H170V32.5Z" fill="#BEB07E"/>
<path d="M170 32.4L107.5 82L70 57.2V20H170V32.4Z" fill="#72AAE0"/>
<path d="M34.6885 195V150.82H45.9289C49.5355 150.82 52.3806 151.18 54.4644 151.902C56.5883 152.623 58.1511 153.545 59.1529 154.667C60.1948 155.789 60.876 156.971 61.1966 158.213C61.5172 159.455 61.6775 160.618 61.6775 161.7C61.6775 162.862 61.4972 164.084 61.1365 165.366C60.8159 166.608 60.2549 167.771 59.4535 168.853C58.652 169.894 57.55 170.736 56.1475 171.377C59.1529 172.139 61.2768 173.461 62.519 175.344C63.8013 177.188 64.4425 179.251 64.4425 181.536C64.4425 183.098 64.2622 184.681 63.9015 186.284C63.5409 187.887 62.7795 189.35 61.6174 190.672C60.4953 191.954 58.7923 192.996 56.5081 193.798C54.224 194.599 51.1584 195 47.3114 195H34.6885ZM41.3005 169.574H47.0109C49.0947 169.574 50.6976 169.233 51.8196 168.552C52.9416 167.831 53.7231 166.909 54.1639 165.787C54.6447 164.665 54.8852 163.483 54.8852 162.241C54.8852 161.199 54.6447 160.257 54.1639 159.415C53.7231 158.534 52.9016 157.833 51.6994 157.312C50.5373 156.791 48.8743 156.53 46.7103 156.53H41.3005V169.574ZM41.3005 189.35H48.2131C50.2568 189.35 51.8797 189.109 53.0819 188.628C54.3241 188.148 55.2659 187.526 55.907 186.765C56.5482 186.004 56.9689 185.182 57.1693 184.301C57.3697 183.379 57.4699 182.477 57.4699 181.596C57.4699 179.512 56.7686 177.889 55.366 176.727C53.9635 175.525 51.7595 174.924 48.754 174.924H41.3005V189.35ZM92.5149 195.601C89.5094 195.601 86.6642 195.08 83.9794 194.038C81.3346 192.996 78.9903 191.494 76.9466 189.53C74.9029 187.526 73.28 185.122 72.0778 182.317C70.9157 179.512 70.3346 176.346 70.3346 172.82C70.3346 169.253 70.9157 166.067 72.0778 163.262C73.28 160.457 74.9029 158.073 76.9466 156.109C79.0304 154.146 81.3947 152.663 84.0395 151.661C86.7244 150.619 89.5495 150.099 92.5149 150.099C95.4802 150.099 98.2853 150.619 100.93 151.661C103.615 152.663 105.979 154.146 108.023 156.109C110.107 158.073 111.73 160.457 112.892 163.262C114.094 166.067 114.695 169.253 114.695 172.82C114.695 176.346 114.094 179.512 112.892 182.317C111.73 185.122 110.127 187.526 108.083 189.53C106.039 191.494 103.675 192.996 100.99 194.038C98.3454 195.08 95.5203 195.601 92.5149 195.601ZM92.5149 189.53C95.2398 189.53 97.7444 188.889 100.029 187.607C102.313 186.324 104.136 184.461 105.498 182.016C106.861 179.532 107.542 176.486 107.542 172.88C107.542 169.233 106.861 166.188 105.498 163.743C104.136 161.259 102.313 159.395 100.029 158.153C97.7844 156.871 95.2799 156.23 92.5149 156.23C89.7498 156.23 87.2253 156.871 84.9411 158.153C82.697 159.395 80.8938 161.259 79.5313 163.743C78.1688 166.188 77.4876 169.233 77.4876 172.88C77.4876 176.486 78.1889 179.532 79.5914 182.016C80.994 184.461 82.8373 186.324 85.1214 187.607C87.4056 188.889 89.8701 189.53 92.5149 189.53ZM121.976 195V150.82H132.615C136.582 150.82 139.948 151.261 142.713 152.142C145.519 153.024 147.823 154.206 149.626 155.689C151.429 157.131 152.832 158.794 153.834 160.678C154.876 162.521 155.597 164.445 155.998 166.448C156.398 168.412 156.599 170.315 156.599 172.159C156.599 174.924 156.198 177.669 155.396 180.393C154.635 183.078 153.353 185.523 151.55 187.727C149.746 189.931 147.322 191.694 144.276 193.016C141.271 194.339 137.504 195 132.976 195H121.976ZM128.708 189.049H133.697C136.662 189.049 139.147 188.588 141.151 187.667C143.194 186.745 144.817 185.503 146.019 183.94C147.262 182.337 148.143 180.554 148.664 178.59C149.225 176.587 149.506 174.543 149.506 172.459C149.506 169.614 149.005 167.009 148.003 164.645C147.001 162.241 145.338 160.317 143.014 158.874C140.73 157.432 137.624 156.711 133.697 156.711H128.708V189.049ZM184.498 195.601C181.493 195.601 178.648 195.08 175.963 194.038C173.318 192.996 170.974 191.494 168.93 189.53C166.886 187.526 165.263 185.122 164.061 182.317C162.899 179.512 162.318 176.346 162.318 172.82C162.318 169.253 162.899 166.067 164.061 163.262C165.263 160.457 166.886 158.073 168.93 156.109C171.014 154.146 173.378 152.663 176.023 151.661C178.708 150.619 181.533 150.099 184.498 150.099C187.464 150.099 190.269 150.619 192.913 151.661C195.598 152.663 197.963 154.146 200.006 156.109C202.09 158.073 203.713 160.457 204.875 163.262C206.077 166.067 206.678 169.253 206.678 172.82C206.678 176.346 206.077 179.512 204.875 182.317C203.713 185.122 202.11 187.526 200.066 189.53C198.023 191.494 195.658 192.996 192.974 194.038C190.329 195.08 187.504 195.601 184.498 195.601ZM184.498 189.53C187.223 189.53 189.728 188.889 192.012 187.607C194.296 186.324 196.119 184.461 197.482 182.016C198.844 179.532 199.525 176.486 199.525 172.88C199.525 169.233 198.844 166.188 197.482 163.743C196.119 161.259 194.296 159.395 192.012 158.153C189.768 156.871 187.263 156.23 184.498 156.23C181.733 156.23 179.209 156.871 176.924 158.153C174.68 159.395 172.877 161.259 171.515 163.743C170.152 166.188 169.471 169.233 169.471 172.88C169.471 176.486 170.172 179.532 171.575 182.016C172.977 184.461 174.821 186.324 177.105 187.607C179.389 188.889 181.853 189.53 184.498 189.53Z" fill="white"/>
<path d="M36.0269 220.854V210.747H38.8742C39.9846 210.747 40.8198 210.993 41.3798 211.487C41.9492 211.98 42.2339 212.654 42.2339 213.509C42.2339 213.926 42.1343 214.301 41.935 214.633C41.7357 214.965 41.4557 215.226 41.095 215.416C40.7344 215.606 40.3168 215.701 39.8422 215.701V215.616C40.4307 215.616 40.9337 215.715 41.3513 215.914C41.7784 216.114 42.1011 216.394 42.3194 216.754C42.5471 217.115 42.661 217.542 42.661 218.036C42.661 218.909 42.3573 219.597 41.7499 220.1C41.1425 220.603 40.3025 220.854 39.2301 220.854H36.0269ZM37.2512 219.659H39.2443C39.9751 219.659 40.5113 219.516 40.853 219.232C41.2042 218.947 41.3798 218.548 41.3798 218.036C41.3798 217.495 41.1994 217.072 40.8388 216.769C40.4781 216.465 39.9466 216.313 39.2443 216.313H37.2512V219.659ZM37.2512 215.117H38.9311C39.6334 215.117 40.1459 214.98 40.4686 214.704C40.7913 214.429 40.9527 214.04 40.9527 213.537C40.9527 213.024 40.7913 212.631 40.4686 212.355C40.1459 212.08 39.6334 211.943 38.9311 211.943H37.2512V215.117ZM50.7275 221.025C49.9777 221.025 49.3798 220.774 48.9337 220.271C48.4876 219.758 48.2646 219.056 48.2646 218.164V213.309H49.4604V217.836C49.4604 218.567 49.5886 219.108 49.8448 219.459C50.1106 219.801 50.5139 219.972 51.0549 219.972C51.6434 219.972 52.1084 219.782 52.4501 219.402C52.7918 219.013 52.9626 218.482 52.9626 217.808V213.309H54.1584V220.854H53.0195V218.99L53.2046 219.089C53.0528 219.706 52.7633 220.185 52.3362 220.527C51.9091 220.859 51.3729 221.025 50.7275 221.025ZM63.3923 220.854V213.309H64.5881V220.854H63.3923ZM60.3599 220.854V219.801H67.1934V220.854H60.3599ZM60.5023 214.363V213.309H64.5881V214.363H60.5023ZM63.2784 212.128V210.732H64.5312V212.128H63.2784ZM75.3453 220.854V212.768C75.3453 212.465 75.2599 212.227 75.089 212.056C74.9182 211.886 74.6809 211.8 74.3772 211.8H72.5977V210.747H74.4341C75.127 210.747 75.649 210.927 76.0001 211.288C76.3608 211.639 76.5411 212.161 76.5411 212.854V220.854H75.3453ZM72.3129 220.854V219.801H79.1464V220.854H72.3129ZM87.4976 221.025C86.8332 221.025 86.259 220.864 85.775 220.541C85.2909 220.219 84.916 219.763 84.6503 219.175C84.394 218.586 84.2659 217.889 84.2659 217.082C84.2659 216.275 84.394 215.578 84.6503 214.989C84.916 214.401 85.2909 213.945 85.775 213.622C86.259 213.3 86.8332 213.138 87.4976 213.138C88.0291 213.138 88.4941 213.267 88.8927 213.523C89.2913 213.77 89.5808 214.05 89.7611 214.363V210.747H90.957V220.854H89.875L89.8323 219.716C89.6235 220.124 89.3151 220.446 88.907 220.684C88.4989 220.911 88.0291 221.025 87.4976 221.025ZM87.5687 219.886C88.0243 219.886 88.4134 219.773 88.7361 219.545C89.0683 219.317 89.3198 218.994 89.4907 218.577C89.671 218.15 89.7611 217.651 89.7611 217.082C89.7611 216.493 89.671 215.99 89.4907 215.573C89.3198 215.155 89.0683 214.837 88.7361 214.619C88.4039 214.391 88.0053 214.277 87.5403 214.277C86.9234 214.277 86.4298 214.529 86.0597 215.032C85.699 215.525 85.5187 216.209 85.5187 217.082C85.5187 217.946 85.699 218.629 86.0597 219.132C86.4298 219.635 86.9329 219.886 87.5687 219.886ZM99.3509 221.082C98.3828 221.082 97.6188 220.85 97.0588 220.385C96.4989 219.91 96.2189 219.241 96.2189 218.377C96.2189 217.941 96.2806 217.556 96.404 217.224C96.5273 216.883 96.7314 216.555 97.0161 216.242C97.3103 215.929 97.709 215.597 98.212 215.245C97.9937 214.961 97.8086 214.695 97.6568 214.448C97.5049 214.192 97.3863 213.936 97.3009 213.679C97.2249 213.423 97.187 213.148 97.187 212.854C97.187 212.123 97.4053 211.553 97.8418 211.145C98.2879 210.728 98.8953 210.519 99.6641 210.519C100.423 210.519 101.007 210.713 101.415 211.103C101.823 211.482 102.027 212.009 102.027 212.683C102.027 213.224 101.866 213.713 101.543 214.149C101.221 214.576 100.68 215.041 99.9203 215.544L102.227 218.491C102.397 218.254 102.526 217.955 102.611 217.594C102.696 217.234 102.739 216.811 102.739 216.327L103.935 216.441C103.926 217.011 103.831 217.561 103.65 218.093C103.479 218.624 103.256 219.056 102.981 219.388L104.191 220.854H102.753L102.227 220.214C101.951 220.48 101.572 220.693 101.088 220.854C100.613 221.006 100.034 221.082 99.3509 221.082ZM99.4933 219.943C99.9773 219.943 100.381 219.886 100.703 219.773C101.026 219.659 101.268 219.516 101.429 219.345L98.9238 216.185C98.4113 216.536 98.0459 216.878 97.8276 217.21C97.6093 217.542 97.5002 217.931 97.5002 218.377C97.5002 218.852 97.6568 219.232 97.97 219.516C98.2927 219.801 98.8004 219.943 99.4933 219.943ZM99.2655 214.676C99.6261 214.448 99.9156 214.239 100.134 214.05C100.352 213.85 100.509 213.646 100.604 213.437C100.699 213.229 100.746 213.006 100.746 212.768C100.746 212.427 100.651 212.166 100.461 211.985C100.272 211.805 100.006 211.715 99.6641 211.715C99.2845 211.715 98.9902 211.814 98.7814 212.014C98.5726 212.213 98.4682 212.493 98.4682 212.854C98.4682 213.043 98.492 213.233 98.5394 213.423C98.5869 213.603 98.6675 213.793 98.7814 213.993C98.9048 214.192 99.0662 214.42 99.2655 214.676ZM111.831 220.854V211.943H108.741V210.747H116.144V211.943H113.055V220.854H111.831ZM123.655 220.854V213.309H124.652L124.766 215.217L124.652 215.188C124.747 214.543 124.951 214.068 125.264 213.765C125.587 213.461 126.014 213.309 126.545 213.309H128.097V214.391H126.56C126.19 214.391 125.876 214.467 125.62 214.619C125.373 214.761 125.184 214.975 125.051 215.26C124.918 215.535 124.851 215.881 124.851 216.299V220.854H123.655ZM121.691 220.854V219.801H127.243V220.854H121.691ZM121.691 214.363V213.309H124.31V214.363H121.691ZM135.922 221.025C135.447 221.025 135.02 220.94 134.64 220.769C134.261 220.598 133.962 220.361 133.744 220.057C133.525 219.744 133.416 219.383 133.416 218.975C133.416 218.33 133.606 217.832 133.986 217.48C134.375 217.12 134.982 216.859 135.808 216.697L138.342 216.185C138.342 215.54 138.195 215.06 137.901 214.747C137.616 214.434 137.203 214.277 136.662 214.277C136.14 214.277 135.732 214.396 135.438 214.633C135.143 214.861 134.939 215.193 134.825 215.63L133.558 215.53C133.701 214.818 134.038 214.244 134.569 213.807C135.11 213.361 135.808 213.138 136.662 213.138C137.573 213.138 138.28 213.414 138.783 213.964C139.286 214.505 139.538 215.255 139.538 216.213V219.345C139.538 219.516 139.576 219.635 139.652 219.701C139.728 219.768 139.841 219.801 139.993 219.801H140.477V220.854C140.42 220.864 140.33 220.869 140.207 220.869C140.083 220.878 139.965 220.883 139.851 220.883C139.528 220.883 139.253 220.831 139.025 220.726C138.807 220.622 138.641 220.456 138.527 220.228C138.413 219.991 138.351 219.687 138.342 219.317H138.57C138.503 219.64 138.342 219.934 138.086 220.2C137.839 220.456 137.526 220.66 137.146 220.812C136.766 220.954 136.358 221.025 135.922 221.025ZM136.036 219.972C136.548 219.972 136.975 219.886 137.317 219.716C137.659 219.535 137.915 219.288 138.086 218.975C138.256 218.653 138.342 218.282 138.342 217.865V217.21L136.036 217.666C135.523 217.76 135.167 217.908 134.968 218.107C134.769 218.297 134.669 218.548 134.669 218.861C134.669 219.213 134.788 219.488 135.025 219.687C135.272 219.877 135.608 219.972 136.036 219.972ZM149.355 221.025C148.653 221.025 148.041 220.864 147.519 220.541C146.997 220.219 146.593 219.763 146.309 219.175C146.024 218.577 145.882 217.879 145.882 217.082C145.882 216.285 146.024 215.592 146.309 215.003C146.593 214.415 146.997 213.959 147.519 213.637C148.041 213.304 148.653 213.138 149.355 213.138C149.915 213.138 150.413 213.243 150.85 213.452C151.287 213.651 151.647 213.945 151.932 214.334C152.217 214.723 152.411 215.198 152.516 215.758L151.263 215.843C151.149 215.34 150.921 214.956 150.58 214.69C150.247 214.415 149.839 214.277 149.355 214.277C148.662 214.277 148.117 214.529 147.718 215.032C147.329 215.525 147.134 216.209 147.134 217.082C147.134 217.955 147.329 218.643 147.718 219.146C148.117 219.64 148.662 219.886 149.355 219.886C149.839 219.886 150.257 219.744 150.608 219.459C150.969 219.175 151.206 218.748 151.32 218.178L152.573 218.263C152.468 218.823 152.269 219.312 151.975 219.73C151.681 220.138 151.31 220.456 150.864 220.684C150.418 220.911 149.915 221.025 149.355 221.025ZM158.404 220.854V210.747H159.6V217.367L163.273 213.309H164.867L161.892 216.512L165.01 220.854H163.558L161.08 217.324L159.6 218.89V220.854H158.404ZM181.968 220.854L185.043 210.747H186.695L189.77 220.854H188.46L185.869 211.857L183.278 220.854H181.968ZM183.52 217.979L183.947 216.783H187.791L188.218 217.979H183.52ZM195.117 220.854V210.747H197.964C199.075 210.747 199.91 210.993 200.47 211.487C201.039 211.98 201.324 212.654 201.324 213.509C201.324 213.926 201.225 214.301 201.025 214.633C200.826 214.965 200.546 215.226 200.185 215.416C199.825 215.606 199.407 215.701 198.932 215.701V215.616C199.521 215.616 200.024 215.715 200.442 215.914C200.869 216.114 201.191 216.394 201.41 216.754C201.637 217.115 201.751 217.542 201.751 218.036C201.751 218.909 201.448 219.597 200.84 220.1C200.233 220.603 199.393 220.854 198.32 220.854H195.117ZM196.341 219.659H198.335C199.065 219.659 199.602 219.516 199.943 219.232C200.294 218.947 200.47 218.548 200.47 218.036C200.47 217.495 200.29 217.072 199.929 216.769C199.568 216.465 199.037 216.313 198.335 216.313H196.341V219.659ZM196.341 215.117H198.021C198.724 215.117 199.236 214.98 199.559 214.704C199.882 214.429 200.043 214.04 200.043 213.537C200.043 213.024 199.882 212.631 199.559 212.355C199.236 212.08 198.724 211.943 198.021 211.943H196.341V215.117Z" fill="#D8D0B3"/>
</svg>
