<svg width="110" height="46" viewBox="0 0 110 46" fill="none" xmlns="http://www.w3.org/2000/svg">
<path d="M0 28.6169V0.459703H7.18883C9.49514 0.459703 11.3154 0.689587 12.6476 1.14929C14.0061 1.60899 15.0057 2.19642 15.6466 2.9115C16.313 3.62658 16.7486 4.38002 16.9539 5.17171C17.1585 5.96346 17.2609 6.7041 17.2609 7.39368C17.2609 8.13432 17.1457 8.91326 16.9155 9.7305C16.7102 10.5223 16.3514 11.2629 15.8385 11.9524C15.3262 12.6164 14.6213 13.1528 13.724 13.5614C15.6466 14.0467 17.005 14.8895 17.7994 16.0898C18.6193 17.2647 19.0299 18.5799 19.0299 20.0357C19.0299 21.0317 18.9142 22.0405 18.6839 23.0621C18.453 24.0837 17.9657 25.0158 17.2225 25.8586C16.5049 26.6759 15.4157 27.34 13.9549 27.8507C12.4941 28.3615 10.5332 28.6169 8.07273 28.6169H0ZM4.22887 12.4122H7.88086C9.21373 12.4122 10.239 12.195 10.9566 11.7609C11.6742 11.3012 12.1737 10.7138 12.4557 9.99869C12.7634 9.28355 12.9169 8.53016 12.9169 7.73841C12.9169 7.07445 12.7634 6.47421 12.4557 5.9379C12.1737 5.37604 11.6486 4.92908 10.8792 4.5971C10.136 4.26511 9.07239 4.09909 7.68835 4.09909H4.22887V12.4122ZM4.22887 25.0158H8.64962C9.95692 25.0158 10.9949 24.8626 11.7637 24.5561C12.5581 24.2497 13.1606 23.8538 13.5705 23.3686C13.9805 22.8833 14.2498 22.3598 14.3777 21.7979C14.5062 21.2105 14.5702 20.6359 14.5702 20.074C14.5702 18.7459 14.1218 17.7115 13.2245 16.9709C12.3272 16.2048 10.9176 15.8217 8.99563 15.8217H4.22887V25.0158ZM36.9841 29C35.0615 29 33.242 28.668 31.5247 28.004C29.8337 27.34 28.3339 26.3822 27.0272 25.1308C25.7199 23.8538 24.6819 22.3215 23.9131 20.5337C23.1699 18.7459 22.7983 16.7283 22.7983 14.4808C22.7983 12.2079 23.1699 10.1775 23.9131 8.3897C24.6819 6.60193 25.7199 5.08236 27.0272 3.8309C28.3594 2.57951 29.872 1.63455 31.5631 0.996014C33.2803 0.332047 35.0871 0 36.9841 0C38.8805 0 40.6745 0.332047 42.3661 0.996014C44.0834 1.63455 45.5954 2.57951 46.9026 3.8309C48.2355 5.08236 49.2736 6.60193 50.0167 8.3897C50.7855 10.1775 51.1699 12.2079 51.1699 14.4808C51.1699 16.7283 50.7855 18.7459 50.0167 20.5337C49.2736 22.3215 48.2483 23.8538 46.941 25.1308C45.6337 26.3822 44.1218 27.34 42.4045 28.004C40.7128 28.668 38.906 29 36.9841 29ZM36.9841 25.1308C38.727 25.1308 40.3285 24.7221 41.7899 23.9049C43.2507 23.0877 44.4166 21.9001 45.2877 20.3421C46.1595 18.7587 46.595 16.8177 46.595 14.5192C46.595 12.195 46.1595 10.2541 45.2877 8.69619C44.4166 7.11275 43.2507 5.92516 41.7899 5.13341C40.354 4.31616 38.7525 3.90751 36.9841 3.90751C35.2157 3.90751 33.6007 4.31616 32.14 5.13341C30.7048 5.92516 29.5516 7.11275 28.6799 8.69619C27.8088 10.2541 27.3732 12.195 27.3732 14.5192C27.3732 16.8177 27.8215 18.7587 28.7182 20.3421C29.6156 21.9001 30.7943 23.0877 32.2551 23.9049C33.7165 24.7221 35.2924 25.1308 36.9841 25.1308ZM55.8266 28.6169V0.459703H62.6311C65.1683 0.459703 67.3211 0.740637 69.0895 1.3025C70.8842 1.86437 72.3578 2.61782 73.5109 3.56278C74.6641 4.48219 75.5614 5.54206 76.2023 6.7424C76.8687 7.91725 77.3298 9.14308 77.5863 10.4201C77.8421 11.6715 77.9707 12.8846 77.9707 14.0594C77.9707 15.8217 77.7142 17.5711 77.2013 19.3078C76.7145 21.019 75.8946 22.5768 74.7415 23.9815C73.5877 25.3862 72.0373 26.5099 70.0892 27.3527C68.1673 28.1955 65.758 28.6169 62.862 28.6169H55.8266ZM60.1323 24.8243H63.3231C65.2195 24.8243 66.8088 24.5306 68.0905 23.9432C69.3972 23.3558 70.4352 22.5641 71.204 21.568C71.999 20.5464 72.5624 19.41 72.8956 18.1585C73.2544 16.8816 73.4342 15.5791 73.4342 14.251C73.4342 12.4377 73.1137 10.7776 72.4729 9.2708C71.832 7.73841 70.7684 6.51258 69.282 5.59311C67.8213 4.6737 65.8347 4.214 63.3231 4.214H60.1323V24.8243ZM95.8142 29C93.8923 29 92.0727 28.668 90.3554 28.004C88.6638 27.34 87.1646 26.3822 85.8573 25.1308C84.55 23.8538 83.512 22.3215 82.7432 20.5337C82 18.7459 81.6284 16.7283 81.6284 14.4808C81.6284 12.2079 82 10.1775 82.7432 8.3897C83.512 6.60193 84.55 5.08236 85.8573 3.8309C87.1902 2.57951 88.7021 1.63455 90.3938 0.996014C92.1111 0.332047 93.9179 0 95.8142 0C97.7112 0 99.5052 0.332047 101.196 0.996014C102.913 1.63455 104.426 2.57951 105.733 3.8309C107.066 5.08236 108.104 6.60193 108.847 8.3897C109.616 10.1775 110 12.2079 110 14.4808C110 16.7283 109.616 18.7459 108.847 20.5337C108.104 22.3215 107.078 23.8538 105.771 25.1308C104.464 26.3822 102.952 27.34 101.235 28.004C99.5436 28.668 97.7368 29 95.8142 29ZM95.8142 25.1308C97.557 25.1308 99.1592 24.7221 100.62 23.9049C102.081 23.0877 103.247 21.9001 104.118 20.3421C104.99 18.7587 105.425 16.8177 105.425 14.5192C105.425 12.195 104.99 10.2541 104.118 8.69619C103.247 7.11275 102.081 5.92516 100.62 5.13341C99.1848 4.31616 97.5826 3.90751 95.8142 3.90751C94.0458 3.90751 92.4315 4.31616 90.9701 5.13341C89.5349 5.92516 88.3817 7.11275 87.5106 8.69619C86.6389 10.2541 86.2033 12.195 86.2033 14.5192C86.2033 16.8177 86.6516 18.7587 87.549 20.3421C88.4457 21.9001 89.625 23.0877 91.0858 23.9049C92.5466 24.7221 94.1225 25.1308 95.8142 25.1308Z" fill="#FCFCFC"/>
<path d="M1 45.849V39.151H2.82099C3.53097 39.151 4.06569 39.3144 4.42388 39.6415C4.78782 39.9686 4.97011 40.4151 4.97011 40.9811C4.97011 41.2578 4.90615 41.5063 4.77886 41.7264C4.65158 41.9465 4.47249 42.1195 4.24159 42.2453C4.01069 42.371 3.74396 42.4339 3.44014 42.4339V42.3773C3.81688 42.3773 4.13861 42.4434 4.40533 42.5755C4.67844 42.7075 4.88504 42.8931 5.02448 43.1321C5.17031 43.3711 5.24323 43.6541 5.24323 43.9811C5.24323 44.5598 5.04878 45.0157 4.66054 45.3491C4.27165 45.6824 3.73437 45.849 3.0487 45.849H1ZM1.7829 45.0566H3.05766C3.52522 45.0566 3.86805 44.9623 4.0868 44.7735C4.3113 44.5849 4.42388 44.3207 4.42388 43.9811C4.42388 43.6226 4.30811 43.3428 4.07785 43.1415C3.84695 42.9402 3.50731 42.8396 3.05766 42.8396H1.7829V45.0566ZM1.7829 42.0471H2.85745C3.30647 42.0471 3.63459 41.956 3.84118 41.7736C4.04714 41.5912 4.15076 41.3333 4.15076 41C4.15076 40.6604 4.04714 40.3994 3.84118 40.217C3.63459 40.0346 3.30647 39.9434 2.85745 39.9434H1.7829V42.0471ZM10.4024 45.9622C9.92331 45.9622 9.54082 45.7956 9.25555 45.4622C8.97028 45.1226 8.82701 44.6572 8.82701 44.066V40.849H9.59199V43.8491C9.59199 44.3333 9.67386 44.6918 9.83824 44.9245C10.0077 45.1509 10.2661 45.2641 10.6122 45.2641C10.9883 45.2641 11.2857 45.1383 11.5044 44.8868C11.7232 44.6289 11.8319 44.2767 11.8319 43.8302V40.849H12.5969V45.849H11.8684V44.6132L11.9867 44.6792C11.8901 45.088 11.7046 45.4057 11.4315 45.6321C11.1584 45.8522 10.8156 45.9622 10.4024 45.9622ZM18.5031 45.849V40.849H19.2681V45.849H18.5031ZM16.5638 45.849V45.1509H20.9343V45.849H16.5638ZM16.6546 41.5472V40.849H19.2681V41.5472H16.6546ZM18.4302 40.066V39.1415H19.2317V40.066H18.4302ZM26.1485 45.849V40.4905C26.1485 40.2893 26.0941 40.1321 25.9848 40.0188C25.8754 39.9057 25.7238 39.8491 25.5293 39.8491H24.3915V39.151H25.5658C26.0091 39.151 26.3429 39.2704 26.5674 39.5095C26.7983 39.7421 26.9135 40.088 26.9135 40.5472V45.849H26.1485ZM24.2092 45.849V45.1509H28.5797V45.849H24.2092ZM33.9211 45.9622C33.4964 45.9622 33.1293 45.8553 32.8197 45.6415C32.5101 45.4277 32.2703 45.1257 32.1001 44.7358C31.9364 44.3459 31.8545 43.8836 31.8545 43.3491C31.8545 42.8144 31.9364 42.3522 32.1001 41.9622C32.2703 41.5723 32.5101 41.2704 32.8197 41.0566C33.1293 40.8427 33.4964 40.7359 33.9211 40.7359C34.2614 40.7359 34.5588 40.8207 34.814 40.9906C35.0686 41.1541 35.2541 41.3396 35.3692 41.5472V39.151H36.1342V45.849H35.4421L35.4146 45.0943C35.281 45.3648 35.0839 45.5786 34.823 45.7359C34.562 45.8868 34.2614 45.9622 33.9211 45.9622ZM33.9672 45.2075C34.2582 45.2075 34.507 45.132 34.7136 44.9811C34.926 44.8302 35.0871 44.6164 35.1965 44.3396C35.3117 44.0566 35.3692 43.7264 35.3692 43.3491C35.3692 42.9591 35.3117 42.6258 35.1965 42.349C35.0871 42.0723 34.926 41.8617 34.7136 41.717C34.5013 41.566 34.246 41.4906 33.9486 41.4906C33.554 41.4906 33.2387 41.6572 33.002 41.9905C32.7711 42.3176 32.656 42.7704 32.656 43.3491C32.656 43.9214 32.7711 44.3742 33.002 44.7075C33.2387 45.0409 33.5604 45.2075 33.9672 45.2075ZM41.5031 46C40.884 46 40.3953 45.8459 40.0372 45.5377C39.679 45.2232 39.4999 44.7798 39.4999 44.2076C39.4999 43.9182 39.5389 43.6635 39.6182 43.4434C39.6969 43.2169 39.8274 43 40.0096 42.7924C40.1977 42.5849 40.4529 42.3648 40.7746 42.1321C40.6352 41.9434 40.5162 41.7673 40.4196 41.6037C40.3224 41.434 40.2463 41.2641 40.1919 41.0944C40.1433 40.9245 40.119 40.7421 40.119 40.5472C40.119 40.0629 40.2585 39.6855 40.538 39.4151C40.8232 39.1384 41.2115 39 41.7034 39C42.1888 39 42.5624 39.129 42.8233 39.3868C43.0843 39.6383 43.2148 39.9874 43.2148 40.4339C43.2148 40.7924 43.1118 41.1164 42.9052 41.4057C42.6986 41.6887 42.3526 41.9968 41.8671 42.3302L43.3427 44.283C43.4514 44.1258 43.5333 43.9276 43.5883 43.6887C43.6427 43.4497 43.6702 43.1698 43.6702 42.849L44.4352 42.9245C44.4288 43.3019 44.368 43.6666 44.2529 44.0188C44.1435 44.371 44.0009 44.6572 43.825 44.8773L44.5989 45.849H43.6791L43.3427 45.4245C43.1662 45.6006 42.9237 45.7421 42.6142 45.849C42.3103 45.9496 41.94 46 41.5031 46ZM41.594 45.2453C41.9035 45.2453 42.162 45.2075 42.3679 45.132C42.5745 45.0566 42.7293 44.9623 42.8323 44.849L41.23 42.7547C40.9019 42.9874 40.6684 43.2138 40.5284 43.434C40.3889 43.6541 40.3192 43.9119 40.3192 44.2076C40.3192 44.522 40.4196 44.7735 40.6198 44.9623C40.8264 45.1509 41.1507 45.2453 41.594 45.2453ZM41.4481 41.7547C41.679 41.6037 41.8639 41.4654 42.004 41.3396C42.1434 41.2075 42.2438 41.0723 42.3046 40.9339C42.3647 40.7956 42.3954 40.6478 42.3954 40.4905C42.3954 40.2642 42.3347 40.0912 42.2131 39.9717C42.0916 39.8522 41.9221 39.7924 41.7034 39.7924C41.4603 39.7924 41.2723 39.8585 41.1386 39.9906C41.0055 40.1226 40.9384 40.3082 40.9384 40.5472C40.9384 40.673 40.9537 40.7987 40.9838 40.9245C41.0145 41.044 41.0657 41.1698 41.1386 41.3019C41.2179 41.434 41.3209 41.5849 41.4481 41.7547ZM49.4856 45.849V39.9434H47.5092V39.151H52.2442V39.9434H50.2685V45.849H49.4856ZM57.0484 45.849V40.849H57.6861L57.759 42.1132L57.6861 42.0943C57.7469 41.6666 57.8774 41.3522 58.0776 41.1509C58.2842 40.9497 58.5573 40.849 58.8969 40.849H59.8896V41.566H58.9065C58.6692 41.566 58.469 41.6163 58.3053 41.717C58.1473 41.8113 58.0258 41.9528 57.9413 42.1415C57.8563 42.3239 57.8134 42.5535 57.8134 42.8302V45.849H57.0484ZM55.7922 45.849V45.1509H59.3434V45.849H55.7922ZM55.7922 41.5472V40.849H57.4674V41.5472H55.7922ZM64.8946 45.9622C64.5908 45.9622 64.3177 45.9056 64.0746 45.7925C63.8322 45.6792 63.641 45.522 63.5009 45.3208C63.3614 45.1132 63.2917 44.8742 63.2917 44.6038C63.2917 44.1761 63.4133 43.8459 63.6557 43.6132C63.9051 43.3742 64.2934 43.2012 64.8217 43.0943L66.4425 42.7547C66.4425 42.327 66.3485 42.0094 66.1598 41.8019C65.9781 41.5943 65.714 41.4906 65.3679 41.4906C65.034 41.4906 64.7731 41.5692 64.585 41.7264C64.3963 41.8774 64.2659 42.0975 64.1929 42.3868L63.3826 42.3207C63.474 41.8491 63.6896 41.4686 64.0292 41.1792C64.3752 40.8836 64.8217 40.7359 65.3679 40.7359C65.9506 40.7359 66.4028 40.9182 66.7246 41.283C67.0463 41.6415 67.2075 42.1384 67.2075 42.7736V44.849C67.2075 44.9623 67.2318 45.0409 67.2797 45.0849C67.3284 45.1289 67.4013 45.1509 67.4985 45.1509H67.8081V45.849C67.7716 45.8553 67.714 45.8585 67.6354 45.8585C67.5561 45.8648 67.4806 45.8679 67.4077 45.8679C67.2011 45.8679 67.0252 45.8333 66.8793 45.7642C66.7399 45.695 66.6337 45.5849 66.5608 45.434C66.4879 45.2767 66.4482 45.0755 66.4425 44.8302H66.5883C66.5455 45.044 66.4425 45.239 66.2781 45.4151C66.1208 45.5849 65.9206 45.7201 65.6775 45.8207C65.4344 45.915 65.1735 45.9622 64.8946 45.9622ZM64.9669 45.2641C65.295 45.2641 65.5681 45.2075 65.7869 45.0943C66.005 44.9749 66.1694 44.8113 66.2781 44.6038C66.3875 44.3899 66.4425 44.1447 66.4425 43.8679V43.434L64.9669 43.7358C64.6394 43.7988 64.4117 43.8962 64.2844 44.0283C64.1565 44.1541 64.0932 44.3207 64.0932 44.5283C64.0932 44.761 64.1686 44.9434 64.3209 45.0755C64.4782 45.2012 64.6938 45.2641 64.9669 45.2641ZM73.4866 45.9622C73.0376 45.9622 72.6461 45.8553 72.3123 45.6415C71.9784 45.4277 71.72 45.1257 71.5383 44.7358C71.356 44.3396 71.2646 43.8774 71.2646 43.3491C71.2646 42.8207 71.356 42.3616 71.5383 41.9717C71.72 41.5817 71.9784 41.2798 72.3123 41.0661C72.6461 40.8459 73.0376 40.7359 73.4866 40.7359C73.8448 40.7359 74.1633 40.805 74.4428 40.9434C74.7223 41.0755 74.9526 41.2704 75.1349 41.5283C75.3172 41.7862 75.4413 42.1006 75.5084 42.4717L74.707 42.5283C74.6341 42.195 74.4882 41.9402 74.2695 41.7641C74.0571 41.5817 73.7962 41.4906 73.4866 41.4906C73.0433 41.4906 72.6947 41.6572 72.4395 41.9905C72.1907 42.3176 72.066 42.7704 72.066 43.3491C72.066 43.9276 72.1907 44.3836 72.4395 44.717C72.6947 45.044 73.0433 45.2075 73.4866 45.2075C73.7962 45.2075 74.0635 45.1132 74.288 44.9245C74.5189 44.7358 74.6705 44.4528 74.7434 44.0755L75.5449 44.1321C75.4777 44.5031 75.3504 44.827 75.1624 45.1037C74.9737 45.3742 74.737 45.5849 74.4518 45.7359C74.1665 45.8868 73.8448 45.9622 73.4866 45.9622ZM79.2745 45.849V39.151H80.0395V43.5377L82.3888 40.849H83.4083L81.5055 42.9717L83.4998 45.849H82.5704L80.9861 43.5094L80.0395 44.5472V45.849H79.2745ZM94.3464 45.849L96.3133 39.151H97.3699L99.3367 45.849H98.4988L96.8416 39.8868L95.1843 45.849H94.3464ZM95.3391 43.9434L95.6122 43.1509H98.0709L98.344 43.9434H95.3391ZM102.757 45.849V39.151H104.578C105.288 39.151 105.822 39.3144 106.181 39.6415C106.545 39.9686 106.727 40.4151 106.727 40.9811C106.727 41.2578 106.663 41.5063 106.536 41.7264C106.408 41.9465 106.229 42.1195 105.998 42.2453C105.768 42.371 105.501 42.4339 105.197 42.4339V42.3773C105.574 42.3773 105.895 42.4434 106.162 42.5755C106.436 42.7075 106.642 42.8931 106.781 43.1321C106.927 43.3711 107 43.6541 107 43.9811C107 44.5598 106.806 45.0157 106.417 45.3491C106.029 45.6824 105.492 45.849 104.805 45.849H102.757ZM103.54 45.0566H104.814C105.282 45.0566 105.625 44.9623 105.844 44.7735C106.068 44.5849 106.181 44.3207 106.181 43.9811C106.181 43.6226 106.066 43.3428 105.835 43.1415C105.604 42.9402 105.264 42.8396 104.814 42.8396H103.54V45.0566ZM103.54 42.0471H104.614C105.064 42.0471 105.391 41.956 105.598 41.7736C105.804 41.5912 105.908 41.3333 105.908 41C105.908 40.6604 105.804 40.3994 105.598 40.217C105.391 40.0346 105.064 39.9434 104.614 39.9434H103.54V42.0471Z" fill="#BEB07E"/>
</svg>
